<svg width="644" height="456" viewBox="0 0 644 456" fill="none" xmlns="http://www.w3.org/2000/svg">
<g clip-path="url(#clip0_105_468)">
<path d="M237.698 6.74015C238.53 9.28384 238.414 12.0832 237.377 14.5346C236.339 16.9859 234.462 18.893 232.152 19.8445C231.64 20.0534 231.113 20.2123 230.576 20.3195L225.234 56.1063L212.704 43.4474L219.697 11.4044C219.439 8.70423 220.161 6.00112 221.709 3.87939C223.258 1.75766 225.507 0.387781 227.971 0.0659289C230.044 -0.194051 232.136 0.325014 233.903 1.53786C235.671 2.7507 237.009 4.58522 237.698 6.7401L237.698 6.74015Z" fill="#FFB6B6"/>
<path d="M145.221 87.829C145.221 87.829 154.946 73.7697 190.238 74.1548L210.269 66.1918L214.847 20.277L230.87 24.4511L228.581 81.2184L194.246 102.924L149.229 112.941L145.221 87.829Z" fill="#E6E7E8"/>
<path d="M90.9917 433.964L100.237 438.274L119.833 401.31L106.188 394.949L90.9917 433.964Z" fill="#FFB6B6"/>
<path d="M167.389 443.536L177.438 443.535L182.219 401.125L167.387 401.126L167.389 443.536Z" fill="#FFB6B6"/>
<path d="M167.035 455.006L197.938 455.005V454.577C197.938 451.087 196.67 447.74 194.415 445.272C192.159 442.804 189.1 441.417 185.91 441.417H185.909L180.264 436.732L169.732 441.418L167.035 441.418L167.035 455.006Z" fill="#2F2E41"/>
<path d="M85.3706 441.307L113.8 454.562L113.953 454.169C115.203 450.958 115.237 447.335 114.046 444.097C112.855 440.859 110.538 438.271 107.603 436.902L107.603 436.902L104.089 430.17L92.721 429.963L90.2394 428.806L85.3706 441.307Z" fill="#2F2E41"/>
<path d="M177.247 192.538L192.52 294.289L188.363 309.451L193.817 320.19L185.808 414.499L189.059 422.331L179.975 428.46H161.491L160.51 343.082L155.944 330.546V323.638L146.649 271.576L144.937 331.128L142.234 343.683L144.505 352.622L141.537 358.885L116.106 418.633H95.3784L96.9815 405.121C93.2679 403.064 102.557 397.052 103.45 392.604L100.398 385.09L103.45 370.899L106.248 343.167L103.297 284.631L104.685 205.806L128.932 185.519L177.247 192.538Z" fill="#2F2E41"/>
<path d="M140.053 58.5394C151.622 58.5394 161 48.2788 161 35.6216C161 22.9645 151.622 12.7039 140.053 12.7039C128.485 12.7039 119.107 22.9645 119.107 35.6216C119.107 48.2788 128.485 58.5394 140.053 58.5394Z" fill="#FFB6B6"/>
<path d="M104.601 209.39C104.564 209.39 104.527 209.384 104.491 209.373C104.105 209.255 103.799 209.162 105.195 195.959L106.701 185.523L105.231 176.308L102.757 173.601L106.732 169.252L104.296 149.527L97.674 111.256C96.5355 104.652 97.4202 97.8221 100.191 91.8244C102.962 85.8268 107.463 80.9969 112.998 78.0837L126.036 64.853L150.026 64.6566L157.702 75.5735L178.008 83.1207L174.641 159.334L177.002 165.363L176.8 165.563C176.785 165.578 175.211 167.135 174.504 167.991C174.162 168.523 174.804 172.496 175.598 175.869L176.615 184.195L174.051 186.2L177.384 190.507L178.349 198.424L177.805 198.276C177.191 198.109 116.393 181.928 105.021 209.042C104.992 209.14 104.937 209.226 104.862 209.288C104.786 209.351 104.696 209.386 104.601 209.39Z" fill="#484C51"/>
<path d="M134.695 57.4172C134.605 57.2017 134.516 56.9854 134.427 56.7683C134.462 56.7695 134.495 56.7749 134.53 56.7759L134.695 57.4172Z" fill="#2F2E41"/>
<path d="M118.524 13.7461C119.519 12.7194 120.812 12.1079 122.176 12.0185C123.531 12.0662 124.904 13.4047 124.624 14.8553C127.112 10.0356 131.072 6.32879 135.809 4.38537C140.546 2.44194 145.757 2.38614 150.528 4.22778C153.894 5.52728 157.196 8.12704 157.969 11.9401C158.044 12.9412 158.317 13.9125 158.769 14.787C159.16 15.2545 159.668 15.5866 160.23 15.7423C160.791 15.898 161.382 15.8705 161.93 15.6633L161.963 15.6526C162.151 15.5826 162.353 15.5757 162.544 15.6328C162.735 15.69 162.906 15.8085 163.035 15.9732C163.164 16.1378 163.244 16.3409 163.267 16.5563C163.289 16.7716 163.251 16.9893 163.159 17.1811L162.207 19.1248C163.407 19.4176 164.655 19.3886 165.843 19.0402C166.041 18.9835 166.249 18.9951 166.44 19.0733C166.631 19.1515 166.796 19.2925 166.911 19.4769C167.026 19.6613 167.086 19.8802 167.083 20.1034C167.08 20.3266 167.013 20.5433 166.893 20.7238C165.31 23.0934 163.244 25.026 160.858 26.3677C158.472 27.7095 155.833 28.4235 153.15 28.4527C149.344 28.4274 145.499 26.9922 141.795 27.9498C140.362 28.3203 139.024 29.037 137.877 30.0475C136.73 31.0579 135.805 32.3365 135.169 33.7893C134.532 35.2421 134.202 36.8323 134.2 38.4432C134.199 40.0542 134.527 41.645 135.161 43.0989C134.024 41.7372 131.824 42.0596 130.66 43.3948C130.124 44.1095 129.728 44.937 129.496 45.826C129.264 46.7151 129.202 47.6467 129.312 48.5633C129.623 51.3707 130.384 54.0959 131.562 56.6129C127.062 56.4615 122.712 54.8023 119.101 51.8597C115.49 48.917 112.791 44.8326 111.369 40.1582C109.948 35.4837 109.871 30.4445 111.151 25.7211C112.431 20.9977 115.004 16.8179 118.524 13.746V13.7461Z" fill="#2F2E41"/>
<path d="M242.939 441.682L237.056 431.339L235.881 437.25C235.675 438.285 235.469 439.337 235.278 440.38C233.607 438.819 231.829 437.375 230.09 435.989C224.749 431.748 219.41 427.502 214.074 423.25L215.745 433.852C216.775 440.38 217.851 447.042 220.4 453.011C220.682 453.687 220.987 454.355 221.315 455.006H246.143C246.343 454.401 246.481 453.774 246.555 453.136C246.561 453.095 246.564 453.053 246.563 453.011C246.952 448.962 244.907 445.147 242.939 441.682Z" fill="#F0F0F0"/>
<path d="M39.0424 441.682L44.9251 431.339L46.1002 437.25C46.3062 438.285 46.5122 439.337 46.7029 440.38C48.3739 438.819 50.1517 437.375 51.8912 435.989C57.2322 431.748 62.5707 427.502 67.9067 423.25L66.2358 433.852C65.2057 440.38 64.1297 447.042 61.5814 453.011C61.299 453.687 60.9939 454.355 60.6657 455.006H35.8377C35.638 454.401 35.4998 453.774 35.4256 453.136C35.4195 453.095 35.417 453.053 35.4182 453.011C35.0288 448.962 37.0738 445.147 39.0424 441.682Z" fill="#F0F0F0"/>
<path d="M299.813 456H0.908197C0.78867 456 0.670254 455.975 0.559727 455.925C0.449199 455.875 0.348731 455.802 0.26409 455.71C0.179449 455.618 0.112292 455.508 0.0664709 455.387C0.02065 455.266 -0.00292969 455.137 -0.00292969 455.006C-0.00292969 454.875 0.02065 454.746 0.0664709 454.625C0.112292 454.504 0.179449 454.395 0.26409 454.302C0.348731 454.21 0.449199 454.137 0.559727 454.087C0.670254 454.037 0.78867 454.012 0.908197 454.012H299.813C300.054 454.012 300.285 454.117 300.456 454.303C300.626 454.49 300.722 454.742 300.722 455.006C300.722 455.27 300.626 455.522 300.456 455.709C300.285 455.895 300.054 456 299.813 456Z" fill="#CACACA"/>
<path d="M425.032 32.5703H334.37C333.434 32.5688 332.537 32.1609 331.876 31.4363C331.214 30.7117 330.843 29.7295 330.843 28.7055C330.843 27.6815 331.214 26.6994 331.876 25.9747C332.537 25.2501 333.434 24.8423 334.37 24.8408H425.032C429.587 24.7712 429.633 32.6404 425.032 32.5703Z" fill="#E4E4E4"/>
<path d="M547.163 52.7866H334.37C333.434 52.7851 332.537 52.3772 331.876 51.6526C331.214 50.928 330.843 49.9458 330.843 48.9218C330.843 47.8978 331.214 46.9157 331.876 46.1911C332.537 45.4665 333.434 45.0586 334.37 45.0571H547.163C551.719 44.9875 551.764 52.8568 547.163 52.7866Z" fill="#E4E4E4"/>
<path d="M621.294 63.657C633.834 63.657 644 52.5343 644 38.8137C644 25.0931 633.834 13.9703 621.294 13.9703C608.753 13.9703 598.587 25.0931 598.587 38.8137C598.587 52.5343 608.753 63.657 621.294 63.657Z" fill="#6C63FF"/>
<path d="M618.196 51.7435C617.804 51.7435 617.418 51.6436 617.067 51.4517C616.716 51.2598 616.411 50.9811 616.176 50.6379L609.981 41.6008C609.782 41.3105 609.637 40.9801 609.554 40.6284C609.472 40.2768 609.454 39.9108 609.5 39.5513C609.547 39.1919 609.658 38.846 609.827 38.5336C609.996 38.2211 610.22 37.9482 610.485 37.7303C610.751 37.5125 611.053 37.3541 611.375 37.264C611.696 37.174 612.031 37.1542 612.359 37.2057C612.687 37.2572 613.004 37.379 613.289 37.5642C613.574 37.7493 613.824 37.9942 614.023 38.2849L618.075 44.1967L628.484 27.114C628.668 26.8121 628.905 26.5527 629.18 26.3508C629.456 26.1488 629.765 26.0083 630.09 25.9371C630.416 25.8659 630.751 25.8655 631.076 25.936C631.401 26.0064 631.711 26.1463 631.987 26.3476C632.263 26.5489 632.5 26.8077 632.684 27.1092C632.869 27.4108 632.997 27.7491 633.063 28.105C633.128 28.4608 633.128 28.8272 633.064 29.1833C632.999 29.5393 632.871 29.8779 632.687 30.1799L620.298 50.5128C620.074 50.8805 619.773 51.1841 619.419 51.3981C619.066 51.6121 618.67 51.7302 618.267 51.7426C618.243 51.743 618.22 51.7435 618.196 51.7435Z" fill="white"/>
<path d="M288.894 15.5197H231.388C230.49 15.5208 229.628 15.9118 228.993 16.6069C228.358 17.302 228.001 18.2444 228 19.2274V58.4C228.001 59.383 228.358 60.3254 228.993 61.0205C229.628 61.7156 230.49 62.1066 231.388 62.1077H288.894C289.792 62.1066 290.654 61.7156 291.289 61.0205C291.924 60.3254 292.282 59.383 292.283 58.4V19.2274C292.282 18.2444 291.924 17.302 291.289 16.6069C290.654 15.9118 289.792 15.5208 288.894 15.5197ZM290.006 43.6579C289.992 47.6459 288.551 51.4691 285.99 54.3075C283.43 57.1458 279.954 58.773 276.31 58.8402C270.475 58.9233 279.538 58.9557 272.501 58.9557C256.409 58.9557 239.629 58.7874 233.368 58.6784C232.544 58.6598 231.76 58.2896 231.182 57.6469C230.604 57.0041 230.279 56.1398 230.276 55.2383V19.2303C230.276 18.9075 230.394 18.598 230.602 18.3694C230.81 18.1409 231.093 18.012 231.388 18.0108H288.892C289.187 18.0112 289.469 18.1393 289.678 18.3673C289.887 18.5952 290.005 18.9043 290.006 19.2271V43.6579Z" fill="#CACACA"/>
<path d="M281.308 40.5211H237.494C237.107 40.5205 236.729 40.389 236.412 40.1446C236.095 39.9001 235.855 39.5547 235.724 39.1554L228.958 18.3843C228.857 18.0742 228.825 17.7422 228.866 17.4161C228.907 17.09 229.018 16.7793 229.191 16.5102C229.365 16.2411 229.594 16.0214 229.861 15.8696C230.128 15.7178 230.424 15.6383 230.725 15.6379L289.486 15.5237H289.489C289.8 15.5238 290.106 15.6082 290.38 15.7695C290.653 15.9308 290.886 16.164 291.058 16.448C291.229 16.7321 291.333 17.0581 291.36 17.397C291.388 17.7359 291.338 18.077 291.216 18.3897L291.113 18.3418L291.216 18.3897L283.035 39.275C282.891 39.645 282.65 39.9604 282.343 40.1819C282.036 40.4035 281.676 40.5214 281.308 40.5211Z" fill="#CACACA"/>
<path d="M260.108 45.6433C262.694 45.6433 264.79 43.35 264.79 40.5211C264.79 37.6922 262.694 35.3989 260.108 35.3989C257.523 35.3989 255.427 37.6922 255.427 40.5211C255.427 43.35 257.523 45.6433 260.108 45.6433Z" fill="#3F3D56"/>
<path d="M425.032 142.78H334.37C333.434 142.778 332.537 142.371 331.876 141.646C331.214 140.921 330.843 139.939 330.843 138.915C330.843 137.891 331.214 136.909 331.876 136.184C332.537 135.46 333.434 135.052 334.37 135.051H425.032C429.587 134.981 429.633 142.85 425.032 142.78Z" fill="#E4E4E4"/>
<path d="M547.164 162.996H334.37C333.433 162.996 332.535 162.589 331.872 161.864C331.21 161.14 330.838 160.157 330.838 159.132C330.838 158.107 331.21 157.124 331.872 156.399C332.535 155.674 333.433 155.267 334.37 155.267H547.164C551.719 155.197 551.764 163.066 547.164 162.996Z" fill="#E4E4E4"/>
<path d="M621.294 173.867C633.834 173.867 644 162.744 644 149.023C644 135.303 633.834 124.18 621.294 124.18C608.753 124.18 598.587 135.303 598.587 149.023C598.587 162.744 608.753 173.867 621.294 173.867Z" fill="#6C63FF"/>
<path d="M618.196 161.953C617.804 161.953 617.418 161.853 617.067 161.661C616.716 161.469 616.411 161.191 616.176 160.848L609.981 151.811C609.782 151.52 609.637 151.19 609.554 150.838C609.472 150.487 609.454 150.12 609.5 149.761C609.547 149.402 609.658 149.056 609.827 148.743C609.996 148.431 610.22 148.158 610.485 147.94C610.751 147.722 611.053 147.564 611.375 147.474C611.696 147.384 612.031 147.364 612.359 147.415C612.687 147.467 613.004 147.589 613.289 147.774C613.574 147.959 613.824 148.204 614.023 148.495L618.075 154.406L628.484 137.324C628.668 137.021 628.905 136.762 629.18 136.559C629.456 136.357 629.765 136.216 630.091 136.144C630.416 136.073 630.751 136.073 631.077 136.143C631.402 136.213 631.712 136.353 631.988 136.555C632.265 136.756 632.502 137.015 632.686 137.317C632.871 137.619 632.999 137.957 633.064 138.314C633.129 138.67 633.129 139.036 633.065 139.393C633 139.749 632.872 140.088 632.687 140.39L620.298 160.723C620.074 161.09 619.773 161.394 619.419 161.608C619.066 161.822 618.671 161.94 618.267 161.952C618.243 161.953 618.22 161.953 618.196 161.953Z" fill="white"/>
<path d="M288.894 125.729H231.388C230.49 125.73 229.628 126.121 228.993 126.817C228.358 127.512 228.001 128.454 228 129.437V168.61C228.001 169.593 228.358 170.535 228.993 171.23C229.628 171.925 230.49 172.316 231.388 172.317H288.894C289.792 172.316 290.654 171.925 291.289 171.23C291.924 170.535 292.282 169.593 292.283 168.61V129.437C292.282 128.454 291.924 127.512 291.289 126.817C290.654 126.121 289.792 125.73 288.894 125.729ZM290.006 153.868C289.992 157.856 288.551 161.679 285.99 164.517C283.43 167.355 279.954 168.983 276.31 169.05C270.475 169.133 279.538 169.165 272.501 169.165C256.409 169.165 239.629 168.997 233.368 168.888C232.544 168.869 231.76 168.499 231.182 167.857C230.604 167.214 230.279 166.349 230.276 165.448V129.44C230.276 129.117 230.394 128.808 230.602 128.579C230.81 128.351 231.093 128.222 231.388 128.221H288.892C289.187 128.221 289.469 128.349 289.678 128.577C289.887 128.805 290.005 129.114 290.006 129.437V153.868Z" fill="#CACACA"/>
<path d="M281.308 150.731H237.495C237.107 150.73 236.729 150.599 236.412 150.354C236.095 150.11 235.855 149.764 235.724 149.365L228.958 128.594C228.857 128.284 228.825 127.952 228.866 127.626C228.907 127.3 229.018 126.989 229.191 126.72C229.365 126.451 229.594 126.231 229.861 126.079C230.128 125.928 230.424 125.848 230.725 125.848L289.486 125.734H289.489C289.8 125.734 290.106 125.818 290.38 125.979C290.653 126.141 290.886 126.374 291.057 126.658C291.229 126.942 291.333 127.268 291.36 127.607C291.388 127.946 291.338 128.287 291.216 128.6L291.113 128.552L291.216 128.6L283.035 149.485C282.891 149.855 282.65 150.17 282.343 150.392C282.036 150.613 281.676 150.731 281.308 150.731Z" fill="#CACACA"/>
<path d="M260.108 155.853C262.694 155.853 264.79 153.56 264.79 150.731C264.79 147.902 262.694 145.609 260.108 145.609C257.523 145.609 255.427 147.902 255.427 150.731C255.427 153.56 257.523 155.853 260.108 155.853Z" fill="#3F3D56"/>
<path d="M425.032 252.99H334.37C333.434 252.988 332.537 252.58 331.876 251.856C331.214 251.131 330.843 250.149 330.843 249.125C330.843 248.101 331.214 247.119 331.876 246.394C332.537 245.67 333.434 245.262 334.37 245.26H425.032C429.587 245.191 429.633 253.06 425.032 252.99Z" fill="#E4E4E4"/>
<path d="M547.164 273.206H334.37C333.433 273.206 332.535 272.799 331.872 272.074C331.21 271.349 330.838 270.366 330.838 269.341C330.838 268.316 331.21 267.333 331.872 266.609C332.535 265.884 333.433 265.477 334.37 265.477H547.164C551.719 265.407 551.764 273.276 547.164 273.206Z" fill="#E4E4E4"/>
<path d="M621.294 284.076C633.834 284.076 644 272.954 644 259.233C644 245.513 633.834 234.39 621.294 234.39C608.753 234.39 598.587 245.513 598.587 259.233C598.587 272.954 608.753 284.076 621.294 284.076Z" fill="#6C63FF"/>
<path d="M618.196 272.163C617.804 272.163 617.417 272.063 617.067 271.871C616.716 271.679 616.411 271.401 616.176 271.057L609.981 262.02C609.782 261.73 609.637 261.4 609.555 261.048C609.473 260.696 609.455 260.331 609.501 259.971C609.548 259.612 609.66 259.267 609.829 258.954C609.998 258.642 610.221 258.369 610.486 258.152C610.752 257.934 611.054 257.775 611.375 257.685C611.696 257.595 612.031 257.575 612.359 257.627C612.687 257.678 613.003 257.8 613.289 257.984C613.574 258.169 613.823 258.414 614.022 258.704L618.075 264.616L628.484 247.533C628.668 247.231 628.904 246.971 629.18 246.769C629.456 246.567 629.765 246.426 630.09 246.354C630.416 246.283 630.751 246.282 631.077 246.353C631.402 246.423 631.712 246.563 631.988 246.764C632.264 246.966 632.502 247.225 632.686 247.527C632.871 247.828 632.999 248.167 633.064 248.523C633.129 248.879 633.129 249.246 633.065 249.602C633 249.959 632.872 250.297 632.687 250.599L620.298 270.932C620.074 271.3 619.772 271.604 619.419 271.818C619.065 272.032 618.67 272.15 618.266 272.162C618.243 272.162 618.22 272.163 618.196 272.163Z" fill="white"/>
<path d="M288.894 235.939H231.388C230.49 235.94 229.628 236.331 228.993 237.026C228.358 237.721 228.001 238.664 228 239.647V278.819C228.001 279.802 228.358 280.745 228.993 281.44C229.628 282.135 230.49 282.526 231.388 282.527H288.894C289.792 282.526 290.654 282.135 291.289 281.44C291.924 280.745 292.282 279.802 292.283 278.819V239.647C292.282 238.664 291.924 237.721 291.289 237.026C290.654 236.331 289.792 235.94 288.894 235.939ZM290.006 264.077C289.992 268.065 288.551 271.889 285.99 274.727C283.43 277.565 279.954 279.192 276.31 279.26C270.475 279.343 279.538 279.375 272.501 279.375C256.409 279.375 239.629 279.207 233.368 279.098C232.544 279.079 231.76 278.709 231.182 278.066C230.604 277.424 230.279 276.559 230.276 275.658V239.65C230.276 239.327 230.394 239.017 230.602 238.789C230.81 238.56 231.093 238.431 231.388 238.43H288.892C289.187 238.431 289.469 238.559 289.678 238.787C289.887 239.015 290.005 239.324 290.006 239.647V264.077Z" fill="#CACACA"/>
<path d="M281.308 260.941H237.495C237.107 260.94 236.729 260.808 236.412 260.564C236.095 260.32 235.855 259.974 235.724 259.575L228.958 238.804C228.857 238.494 228.825 238.162 228.866 237.836C228.907 237.509 229.018 237.199 229.191 236.93C229.365 236.661 229.594 236.441 229.861 236.289C230.128 236.137 230.424 236.058 230.725 236.057L289.486 235.943H289.489C289.8 235.943 290.106 236.028 290.38 236.189C290.653 236.35 290.886 236.583 291.057 236.867C291.229 237.151 291.333 237.478 291.36 237.816C291.388 238.155 291.338 238.496 291.216 238.809L291.113 238.761L291.216 238.809L283.035 259.694C282.891 260.064 282.65 260.38 282.343 260.601C282.036 260.823 281.676 260.941 281.308 260.941Z" fill="#CACACA"/>
<path d="M260.108 266.063C262.694 266.063 264.79 263.77 264.79 260.941C264.79 258.112 262.694 255.818 260.108 255.818C257.523 255.818 255.427 258.112 255.427 260.941C255.427 263.77 257.523 266.063 260.108 266.063Z" fill="#3F3D56"/>
<path d="M164.475 211.619C162.006 211.661 159.621 210.639 157.835 208.774C156.048 206.91 155.003 204.352 154.924 201.651C154.908 201.055 154.94 200.457 155.021 199.867L125.778 182.802L140.769 173.903L166.24 191.472C168.659 192.074 170.765 193.693 172.102 195.981C173.439 198.268 173.9 201.039 173.384 203.694C172.941 205.925 171.818 207.925 170.199 209.365C168.58 210.805 166.562 211.6 164.475 211.619L164.475 211.619Z" fill="#FFB6B6"/>
<path d="M151.506 199.355L102.639 178.483L94.8696 135.634L97.7547 110.998C98.1461 107.656 99.146 104.433 100.695 101.521C102.244 98.6081 104.311 96.065 106.774 94.0415C109.237 92.0181 112.046 90.5553 115.034 89.7397C118.022 88.9241 121.13 88.7722 124.172 89.293L124.336 89.3211L124.43 89.4715C124.802 90.0744 133.422 104.647 121.822 140.805L122.251 163.784L160.679 183.411L151.506 199.355Z" fill="#E6E7E8"/>
</g>
<defs>
<clipPath id="clip0_105_468">
<rect width="644" height="456" fill="white"/>
</clipPath>
</defs>
</svg>
