<svg width="241" height="193" viewBox="0 0 241 193" fill="none" xmlns="http://www.w3.org/2000/svg">
<path d="M234.975 156.812H143.674C143.395 164.28 138.134 168.875 131.345 168.875H108.45C101.412 168.875 96.0159 162.29 96.1101 156.812H6.025C2.71125 156.812 0 159.527 0 162.844V168.875C0 182.144 10.845 193 24.1 193H216.9C230.155 193 241 182.144 241 168.875V162.844C241 159.527 238.289 156.812 234.975 156.812ZM216.9 18.0938C216.9 8.14219 208.766 0 198.825 0H42.175C32.2337 0 24.1 8.14219 24.1 18.0938V144.75H216.9V18.0938ZM192.8 120.625H48.2V24.125H192.8V120.625Z" fill="#3DB2AD"/>
</svg>
