
                        <svg width="52" height="48" viewBox="0 0 52 48" fill="none" xmlns="http://www.w3.org/2000/svg">
                            <path d="M35.0309 41.6192C34.7615 41.4554 34.5267 41.2358 34.3401 40.9696C34.2539 40.8469 34.1811 40.7171 34.1208 40.583H3.50216V10.4283H45.0625V30.1182C45.9497 30.1983 46.6942 30.7806 47.0068 31.5779C47.2835 31.4263 47.592 31.3326 47.9162 31.3041C48.1355 31.285 48.3533 31.2986 48.5645 31.3403V2.91616C48.5645 1.30818 47.2555 0 45.6464 0H2.91843C1.30926 0 0 1.30818 0 2.91616V41.1663C0 42.7743 1.30926 44.0824 2.91843 44.0824H34.7649C34.5164 43.5795 34.4574 43.0119 34.6037 42.4657C34.688 42.1516 34.8339 41.865 35.0309 41.6192ZM41.8577 4.8968C41.8577 4.30217 42.3401 3.82 42.9352 3.82H44.0128C44.608 3.82 45.0904 4.30204 45.0904 4.8968V6.11714C45.0904 6.71178 44.6079 7.19383 44.0128 7.19383H42.9352C42.34 7.19383 41.8577 6.71178 41.8577 6.11714V4.8968ZM36.8469 4.8968C36.8469 4.30217 37.3293 3.82 37.9244 3.82H39.0021C39.5974 3.82 40.0797 4.30204 40.0797 4.8968V6.11714C40.0797 6.71178 39.5973 7.19383 39.0021 7.19383H37.9244C37.3293 7.19383 36.8469 6.71178 36.8469 6.11714V4.8968ZM31.836 4.8968C31.836 4.30217 32.3185 3.82 32.9135 3.82H33.9911C34.5864 3.82 35.0688 4.30204 35.0688 4.8968V6.11714C35.0688 6.71178 34.5864 7.19383 33.9911 7.19383H32.9135C32.3185 7.19383 31.836 6.71178 31.836 6.11714V4.8968Z" fill="#1EBDB6" />
                            <path d="M51.9931 39.5657L51.6693 37.7308C51.6256 37.4837 51.39 37.3186 51.1424 37.3622L49.5093 37.6497C49.3133 37.1901 49.0629 36.7595 48.7657 36.3654L49.8324 35.095C49.9099 35.0029 49.9477 34.8835 49.9373 34.7634C49.9267 34.6433 49.8687 34.5324 49.7763 34.4548L48.3481 33.2571C48.2557 33.1797 48.136 33.1421 48.0158 33.1526C47.8956 33.1631 47.7846 33.2209 47.7071 33.3132L46.6414 34.5826C46.2039 34.3599 45.736 34.1882 45.2458 34.0749V32.4179C45.2458 32.167 45.0421 31.9633 44.7909 31.9633H42.926C42.675 31.9633 42.4712 32.167 42.4712 32.4179V34.0749C41.9807 34.1881 41.5133 34.3599 41.0755 34.5826L40.0096 33.3133C39.8481 33.121 39.5613 33.096 39.3688 33.2573L37.9404 34.4548C37.848 34.5324 37.7902 34.6433 37.7795 34.7634C37.7691 34.8835 37.8068 35.0031 37.8843 35.0954L38.9511 36.3656C38.6544 36.7595 38.4035 37.1903 38.2075 37.6499L36.5744 37.3622C36.3275 37.3188 36.0914 37.4837 36.0475 37.7308L35.7238 39.5657C35.7029 39.6843 35.73 39.8063 35.799 39.9052C35.8685 40.0041 35.9736 40.0712 36.0925 40.0921L37.7268 40.3799C37.7534 40.8859 37.8416 41.3753 37.9835 41.8414L36.5471 42.6698C36.4426 42.7298 36.3664 42.8293 36.3351 42.9456C36.3039 43.062 36.3203 43.186 36.3805 43.2904L37.3128 44.9039C37.3729 45.0084 37.4724 45.0845 37.5888 45.1156C37.6276 45.126 37.6671 45.1311 37.7066 45.1311C37.7857 45.1311 37.8641 45.1106 37.934 45.0702L39.3715 44.2409C39.7096 44.6028 40.0912 44.9235 40.5083 45.1947L39.9406 46.7528C39.8995 46.8662 39.9048 46.9911 39.9559 47.1004C40.0069 47.2096 40.0991 47.2941 40.2124 47.3352L41.9644 47.9723C42.0147 47.9906 42.0674 48 42.12 48C42.1857 48 42.2517 47.9858 42.3125 47.9573C42.4218 47.9065 42.5061 47.8142 42.5474 47.7008L43.1149 46.1427C43.3582 46.1722 43.6059 46.1874 43.8571 46.1874C44.1084 46.1874 44.356 46.1719 44.5994 46.1427L45.167 47.7008C45.2081 47.8142 45.2928 47.9065 45.4019 47.9573C45.4626 47.9857 45.5283 48 45.5943 48C45.6468 48 45.6996 47.9908 45.7499 47.9723L47.5021 47.3352C47.6151 47.2941 47.7075 47.2094 47.7584 47.1004C47.8094 46.9911 47.8149 46.8662 47.7736 46.7528L47.206 45.195C47.6227 44.9237 48.0043 44.6028 48.3427 44.2411L49.7803 45.0705C49.85 45.1106 49.9285 45.1314 50.0076 45.1314C50.047 45.1314 50.0869 45.126 50.1254 45.1159C50.2419 45.0847 50.3412 45.0084 50.4014 44.9042L51.3337 43.2904C51.3939 43.1862 51.4104 43.062 51.3792 42.9456C51.3479 42.8295 51.2717 42.73 51.1672 42.6698L49.731 41.8417C49.8729 41.3755 49.9608 40.886 49.9875 40.3802L51.6218 40.0923C51.7406 40.0714 51.8461 40.0042 51.9152 39.9053C51.9869 39.8063 52.0141 39.6843 51.9931 39.5657ZM43.8586 42.4815C42.4773 42.4815 41.3572 41.3623 41.3572 39.982C41.3572 38.6017 42.4774 37.4827 43.8586 37.4827C45.2401 37.4827 46.3601 38.6017 46.3601 39.982C46.3601 41.3623 45.2401 42.4815 43.8586 42.4815Z" fill="#1EBDB6" />
                            <path d="M20.3942 27.1437C20.3942 26.5558 20.0493 26.0157 19.5155 25.768L14.6298 23.4998L19.5156 21.2313C20.0493 20.9834 20.3942 20.4434 20.3942 19.8557V19.8163C20.3942 19.2954 20.1318 18.8172 19.6927 18.5377C19.4497 18.3826 19.1668 18.3006 18.8747 18.3006C18.6545 18.3006 18.4335 18.349 18.2357 18.4408L10.4248 22.0701C9.89117 22.3181 9.54655 22.858 9.54655 23.4456V23.5541C9.54655 24.1409 9.89104 24.6805 10.4249 24.9297L18.2366 28.5594C18.4385 28.6528 18.6536 28.7002 18.8758 28.7002C19.1653 28.7002 19.4474 28.6181 19.6927 28.4622C20.132 28.1816 20.3943 27.7037 20.3943 27.1834L20.3942 27.1437Z" fill="#1EBDB6" />
                            <path d="M28.101 14.6024C27.8161 14.2127 27.3578 13.9801 26.8749 13.9801H26.8361C26.1731 13.9801 25.5918 14.4039 25.3899 15.0338L20.2435 30.9665C20.097 31.4265 20.1795 31.9332 20.464 32.3228C20.7489 32.7123 21.2072 32.9451 21.6901 32.9451H21.7291C22.3918 32.9451 22.9727 32.5212 23.1744 31.8914L28.3202 15.9599C28.468 15.5002 28.386 14.9928 28.101 14.6024Z" fill="#1EBDB6" />
                            <path d="M38.1398 22.07L30.3287 18.4406C30.1316 18.3491 29.9109 18.3007 29.6908 18.3007C29.3988 18.3007 29.1157 18.3825 28.8729 18.5373C28.433 18.8173 28.1706 19.2954 28.1706 19.8162V19.8557C28.1706 20.4429 28.5152 20.983 29.0494 21.2319L33.935 23.4999L29.0493 25.768C28.5155 26.0157 28.1706 26.5557 28.1706 27.1437V27.1834C28.1706 27.7037 28.433 28.1814 28.8726 28.4623C29.1171 28.6179 29.3994 28.7002 29.6893 28.7002C29.9112 28.7002 30.126 28.6528 30.3294 28.559L38.1408 24.9293C38.6741 24.6808 39.0185 24.1411 39.0185 23.5542V23.4457C39.0181 22.858 38.6735 22.318 38.1398 22.07Z" fill="#1EBDB6" />
                        </svg>