 <svg width="51" height="52" viewBox="0 0 51 52" fill="none" xmlns="http://www.w3.org/2000/svg">
                            <path d="M21.5757 51.7559C21.6557 50.9547 21.709 50.2597 21.805 49.57C21.965 48.3762 22.1623 47.1825 22.3275 45.9887C22.4129 45.3892 22.4609 44.7844 22.5355 44.1848C22.6528 43.2617 22.7755 42.3438 22.8928 41.4206C22.9621 40.8848 23.0367 40.3436 23.0901 39.8025C23.17 38.996 23.2287 38.1896 23.314 37.3831C23.3567 36.9534 23.4473 36.5289 23.49 36.0939C23.5753 35.2078 23.218 34.4067 22.9887 33.5843C22.9088 33.2925 22.7968 33.0007 22.7595 32.6983C22.7488 32.6028 22.9301 32.3959 23.0261 32.3959C24.7164 32.3747 26.4013 32.38 28.0916 32.38C28.3316 32.38 28.4276 32.4383 28.3369 32.7195C28.145 33.2978 28.001 33.8921 27.841 34.4757C27.777 34.7091 27.6971 34.9426 27.6597 35.1813C27.5264 36.0037 27.6384 36.8154 27.809 37.6272C27.9263 38.2002 27.9637 38.7944 28.0223 39.3833C28.1023 40.2375 28.145 41.0917 28.2516 41.9406C28.4062 43.1821 28.5982 44.4236 28.7688 45.6651C28.8435 46.2169 28.9128 46.774 28.9661 47.331C29.0461 48.1693 29.1048 49.0076 29.1901 49.8406C29.2381 50.3499 29.3021 50.8592 29.3874 51.3633C29.4034 51.4588 29.5313 51.5383 29.686 51.7187C29.9206 50.8009 30.1125 50.005 30.3258 49.2145C30.5445 48.4081 30.7951 47.6122 31.019 46.8058C31.1737 46.2434 31.307 45.6757 31.4563 45.1133C31.6216 44.4979 31.8028 43.8877 31.9681 43.2723C32.1174 42.7099 32.2508 42.1475 32.4001 41.5851C32.56 40.9803 32.736 40.3861 32.9013 39.7812C33.0559 39.2241 33.1946 38.6618 33.3492 38.0994C33.5198 37.468 33.7011 36.842 33.8664 36.2053C34.0157 35.627 34.149 35.0434 34.2983 34.4704C34.4583 33.8708 34.6449 33.2766 34.8049 32.6771C34.9542 32.1306 35.0875 31.5788 35.2314 31.0324C35.2954 30.783 35.3008 30.4488 35.4661 30.3055C35.6527 30.1463 36.0313 30.0402 36.2499 30.1198C37.2737 30.4912 38.2601 30.9422 39.2732 31.3454C40.313 31.7592 41.3688 32.1412 42.4139 32.5444C43.2457 32.8681 44.0722 33.1917 44.8987 33.5313C45.9598 33.961 46.9783 34.4757 47.9061 35.1654C48.7432 35.7861 49.3991 36.5501 49.7777 37.5105C49.943 37.9349 49.9376 38.423 49.9856 38.8899C50.0709 39.7441 50.1189 40.5983 50.2042 41.4525C50.3055 42.4552 50.4335 43.458 50.5508 44.4607C50.5562 44.5085 50.5615 44.5562 50.5615 44.604C50.6361 45.6173 50.7055 46.6254 50.7854 47.6388C50.8388 48.3391 50.8974 49.0341 50.9881 49.7291C51.132 50.8433 49.9483 52.0105 48.7805 51.9999C42.3606 51.9416 35.9353 51.9575 29.5153 51.9575C20.4933 51.9575 11.4659 51.9628 2.44382 51.984C1.64399 51.984 0.950802 51.8089 0.502898 51.1563C-0.0356527 50.3711 -0.099639 49.4639 0.113649 48.5407C0.134977 48.4505 0.177635 48.3656 0.188299 48.2701C0.268282 47.2727 0.316272 46.2752 0.417583 45.2831C0.502898 44.4342 0.636203 43.5906 0.748179 42.747C0.753511 42.6993 0.758843 42.6515 0.764176 42.6091C0.838826 41.6116 0.828162 40.6036 1.00946 39.6274C1.18542 38.683 1.03612 37.6696 1.67598 36.7942C2.31051 35.9241 3.06768 35.2131 3.94749 34.6401C5.2912 33.77 6.82687 33.2872 8.30922 32.7142C9.48231 32.2579 10.6394 31.7539 11.8071 31.2817C12.7883 30.8838 13.7747 30.4859 14.7665 30.1198C15.2304 29.9447 15.641 30.2684 15.7476 30.7459C15.8863 31.3666 16.0942 31.9768 16.2595 32.5922C16.4088 33.1546 16.5368 33.7223 16.6861 34.2847C16.8514 34.9001 17.038 35.5103 17.2033 36.1257C17.3526 36.6722 17.4859 37.224 17.6299 37.7704C17.8645 38.6352 18.1098 39.5 18.3444 40.3648C18.4937 40.9113 18.6217 41.4578 18.7656 42.0043C18.9363 42.6356 19.1229 43.267 19.2882 43.8983C19.4375 44.4607 19.5655 45.0284 19.7148 45.5908C19.8801 46.2063 20.0667 46.8164 20.232 47.4371C20.3813 47.9995 20.5199 48.5619 20.6639 49.1296C20.8612 49.9148 21.0532 50.7001 21.2664 51.48C21.2771 51.5649 21.4211 51.6232 21.5757 51.7559Z" fill="#1EBDB6" />
                            <path d="M13.5668 13.0306C13.7481 12.0385 13.956 10.8023 14.1906 9.57669C14.4733 8.11766 15.1184 6.80719 15.9076 5.56038C17.0647 3.73527 18.5897 2.29216 20.504 1.2788C21.3678 0.822521 22.2742 0.451132 23.25 0.302577C23.9699 0.196466 24.6951 0.00546563 25.4149 0.000160069C26.1667 -0.00514549 26.9346 0.122188 27.6757 0.270744C28.3743 0.413994 29.0728 0.610299 29.7286 0.886188C31.5629 1.65549 33.0932 2.82272 34.341 4.38786C35.2528 5.53386 35.978 6.77536 36.5005 8.11766C36.8044 8.89227 36.9538 9.72525 37.119 10.5476C37.2683 11.2904 37.439 12.0491 37.4336 12.7972C37.423 13.8317 37.279 14.8663 37.1457 15.8956C37.0657 16.5004 36.8898 17.0894 36.7565 17.6889C36.4952 18.8296 36.0046 19.8695 35.4714 20.9041C34.5703 22.6655 33.3439 24.1564 31.8242 25.4138C30.8324 26.2361 29.734 26.8675 28.4969 27.276C27.4091 27.6368 26.3054 27.8809 25.1643 27.8066C23.314 27.6846 21.613 27.0903 20.0827 26.0345C18.7283 25.1008 17.5446 23.976 16.6648 22.5859C16.0516 21.615 15.465 20.6229 14.9905 19.583C14.5799 18.6969 14.3186 17.7366 14.0467 16.7976C13.908 16.3254 13.8867 15.8213 13.8227 15.3279C13.7481 14.6541 13.6734 13.975 13.5668 13.0306Z" fill="#1EBDB6" />
                        </svg>