 <svg width="67" height="67" viewBox="0 0 67 67" fill="none" xmlns="http://www.w3.org/2000/svg">
                            <path d="M18.6476 3.38933C15.821 4.20066 13.4917 6.56921 12.772 9.3696C12.4972 10.4296 12.4972 12.4317 12.772 13.3608C13.0337 14.2768 13.6095 15.2583 14.1722 15.8079L14.6302 16.2528L14.6826 13.7141C14.7349 11.7512 14.7873 11.0839 14.9574 10.6913C15.5462 9.31726 16.7501 8.49285 18.1503 8.49285C18.5822 8.49285 19.6683 8.63679 20.5582 8.81999C23.0576 9.33035 24.1437 9.42195 27.5068 9.42195C31.2101 9.42195 31.5765 9.33035 32.8458 8.15261C33.9189 7.15808 34.4423 6.09812 34.5208 4.7241C34.6255 2.99675 35.3453 3.1407 26.7347 3.15378C20.2179 3.15378 19.3542 3.17996 18.6476 3.38933Z" fill="#1EBDB6" />
                            <path d="M41.0898 3.40234C40.8281 3.66406 40.8281 3.83418 40.8281 14.918V26.1719H41.1422C41.3908 26.1719 41.7572 25.7662 43.0004 24.0781L44.5576 21.9975L53.9533 21.9844C63.1527 21.9844 63.3359 21.9844 63.5977 21.7227C63.8594 21.4609 63.8594 21.2908 63.8594 12.5625C63.8594 3.83418 63.8594 3.66406 63.5977 3.40234C63.3359 3.14062 63.1658 3.14062 52.3438 3.14062C41.5217 3.14062 41.3516 3.14062 41.0898 3.40234ZM53.7047 6.46445C54.2936 6.71309 54.4375 7.18418 54.4375 8.97695V10.4688H55.9293C57.7221 10.4688 58.1932 10.6127 58.4418 11.2016C58.6643 11.725 58.6773 13.2691 58.4811 13.8711C58.2586 14.4992 57.7482 14.6562 55.9424 14.6562H54.4375V16.1611C54.4375 18.5166 54.1889 18.8438 52.3438 18.8438C50.4986 18.8438 50.25 18.5166 50.25 16.1611V14.6562H48.7451C46.3896 14.6562 46.0625 14.4076 46.0625 12.5625C46.0625 10.7174 46.3896 10.4688 48.7451 10.4688H50.25V8.97695C50.25 7.22344 50.3939 6.71309 50.9566 6.46445C51.4932 6.24199 53.1551 6.22891 53.7047 6.46445Z" fill="#1EBDB6" />
                            <path d="M32.9766 10.4688C32.7934 10.6127 32.3746 10.8221 32.0344 10.953L31.4062 11.1754V13.7272V16.2789L31.7988 15.8994C32.9242 14.8264 33.5 13.3084 33.5 11.4371C33.5 10.7567 33.4607 10.2071 33.4084 10.2071C33.343 10.2071 33.1598 10.3248 32.9766 10.4688Z" fill="#1EBDB6" />
                            <path d="M17.1295 10.8482L16.75 11.2277V14.5908C16.75 17.6268 16.7762 18.0062 17.0248 18.7521C17.5875 20.4271 18.7129 21.6834 20.3879 22.4816C21.3955 22.9658 21.3955 22.9658 23.1621 22.9658C24.8895 22.9658 24.9418 22.9527 25.7924 22.5471C27.3627 21.775 28.5012 20.5057 29.0508 18.9092C29.2863 18.2287 29.3125 17.81 29.3125 14.8525V11.5549L26.8 11.4633C24.052 11.3586 21.932 11.123 20.1262 10.7305C19.498 10.5865 18.6475 10.4688 18.2418 10.4688C17.6137 10.4688 17.4697 10.5211 17.1295 10.8482ZM20.5449 14.002C20.6889 14.1459 20.8066 14.4338 20.8066 14.6562C20.8066 14.8787 20.6889 15.1666 20.5449 15.3105C20.401 15.4545 20.1131 15.5723 19.8906 15.5723C19.6682 15.5723 19.3803 15.4545 19.2363 15.3105C19.0924 15.1666 18.9746 14.8787 18.9746 14.6562C18.9746 14.4338 19.0924 14.1459 19.2363 14.002C19.3803 13.858 19.6682 13.7402 19.8906 13.7402C20.1131 13.7402 20.401 13.858 20.5449 14.002ZM26.8262 14.002C26.9701 14.1459 27.0879 14.4338 27.0879 14.6562C27.0879 14.8787 26.9701 15.1666 26.8262 15.3105C26.6822 15.4545 26.3943 15.5723 26.1719 15.5723C25.9494 15.5723 25.6615 15.4545 25.5176 15.3105C25.3736 15.1666 25.2559 14.8787 25.2559 14.6562C25.2559 14.4338 25.3736 14.1459 25.5176 14.002C25.6615 13.858 25.9494 13.7402 26.1719 13.7402C26.3943 13.7402 26.6822 13.858 26.8262 14.002ZM21.8928 18.6213C22.4816 18.9092 23.5809 18.9092 24.1697 18.6213C24.4314 18.5035 24.7848 18.1895 24.9811 17.9277L25.3213 17.4436L26.1457 17.8492C26.5906 18.0586 26.957 18.2811 26.957 18.3203C26.957 18.582 26.0934 19.642 25.5961 19.9953C24.7848 20.5842 24.065 20.8066 23.0312 20.8066C21.9975 20.8066 21.2777 20.5842 20.4664 19.9953C19.9691 19.642 19.1055 18.582 19.1055 18.3203C19.1055 18.2811 19.4719 18.0586 19.9168 17.8492L20.7281 17.4436L21.0814 17.9277C21.2777 18.1895 21.6441 18.5035 21.8928 18.6213Z" fill="#1EBDB6" />
                            <path d="M3.40234 11.7773C3.14062 12.0391 3.14062 12.2092 3.14062 27.4805V42.9219H4.1875H5.23437V39.8074C5.24746 34.3506 5.52226 32.9111 7.02715 30.5688C8.12637 28.8676 9.89297 27.402 11.7773 26.643C12.6672 26.2766 14.1328 25.9494 16.5799 25.5699L18.0324 25.3344L18.2549 24.4969L18.4643 23.6594L18.0978 23.3977C17.1557 22.691 16.2135 21.5395 15.6377 20.401C15.3105 19.7467 15.0488 19.1447 15.0488 19.0531C15.0488 18.9746 14.7478 18.726 14.3814 18.5166C12.3793 17.3389 10.5996 14.3291 10.5996 12.1438V11.5156H7.13183C3.83418 11.5156 3.65098 11.5287 3.40234 11.7773Z" fill="#1EBDB6" />
                            <path d="M35.4628 12.1176C35.4628 14.2768 33.8794 17.0379 31.8118 18.4512C31.1444 18.9092 31.0397 19.04 30.7256 19.9168C30.2807 21.0945 29.2862 22.4555 28.3309 23.1883C27.5719 23.7902 27.5719 23.7641 27.9253 24.8633C28.0692 25.3082 28.0823 25.3213 29.1161 25.4783C31.5501 25.8709 33.5653 26.3289 34.3243 26.643C36.2087 27.4412 37.9491 28.8938 39.0352 30.5688C40.5401 32.9111 40.8149 34.3506 40.828 39.8074V42.9219H51.2967H61.7655V33.5V24.0781H53.5999H45.4342L44.1649 25.7793C43.4583 26.7215 42.7124 27.6113 42.4899 27.7684C42.2282 27.9646 41.8356 28.0693 41.3383 28.1086C40.37 28.1871 39.611 27.7814 39.1268 26.9309L38.7997 26.3682L38.7604 18.9354L38.7212 11.5156H37.0985H35.4628V12.1176ZM50.2499 29.3125V31.4062H48.1561H46.0624V29.3125V27.2188H48.1561H50.2499V29.3125ZM58.6249 29.3125V31.4062H56.5311H54.4374V29.3125V27.2188H56.5311H58.6249V29.3125ZM50.2499 37.6875V39.7812H48.1561H46.0624V37.6875V35.5938H48.1561H50.2499V37.6875ZM58.6249 37.6875V39.7812H56.5311H54.4374V37.6875V35.5938H56.5311H58.6249V37.6875Z" fill="#1EBDB6" />
                            <path d="M20.2178 24.7586C20.1916 24.8502 20.1 25.1643 20.0346 25.4521L19.8906 25.9756L21.4348 28.2918C22.2723 29.5742 23.0051 30.6211 23.0443 30.6211C23.0836 30.6211 23.8033 29.5873 24.6539 28.3311L26.185 26.0279L26.041 25.4783C25.9625 25.1773 25.8709 24.8633 25.8447 24.7848C25.8186 24.6801 25.6092 24.6801 25.0988 24.824C24.7193 24.9156 23.8426 25.0072 23.1359 25.0072C22.0367 25.0072 21.5002 24.9418 20.5057 24.6539C20.3879 24.6146 20.257 24.667 20.2178 24.7586Z" fill="#1EBDB6" />
                            <path d="M16.9463 27.4674L15.7686 27.6898L15.7293 30.7258C15.7031 33.6047 15.7162 33.7617 15.9387 33.7617C16.449 33.7617 17.7969 34.573 18.3988 35.2404C19.4588 36.4051 19.8775 37.7529 19.8906 39.9383V40.8281H18.8438H17.7969V39.3887C17.7969 37.766 17.6398 37.2426 16.9725 36.5229C16.3574 35.8816 15.6639 35.5937 14.6562 35.5937C13.6486 35.5937 12.9551 35.8816 12.34 36.5229C11.6727 37.2426 11.5156 37.766 11.5156 39.3887V40.8281H10.4688H9.42188V39.9383C9.43496 37.7529 9.85371 36.4051 10.9137 35.2404C11.5156 34.573 12.8635 33.7617 13.3607 33.7617C13.5832 33.7617 13.5963 33.5523 13.6355 30.9482C13.6748 27.6506 13.7926 27.8207 12.0914 28.6451C10.2594 29.535 8.97695 30.7781 8.13945 32.5186C7.39355 34.0496 7.32812 34.5207 7.32812 38.9176V42.9219H14.6562H21.9844V37.7529V32.5971L20.1916 29.9014C19.2102 28.4227 18.3465 27.2318 18.268 27.2318C18.1895 27.2449 17.6006 27.3496 16.9463 27.4674Z" fill="#1EBDB6" />
                            <path d="M25.884 29.9275L24.0781 32.6494V37.7791V42.9219H31.4062H38.7344V38.9176C38.7344 35.6984 38.6951 34.7563 38.525 34.102C38.0932 32.4008 36.9939 30.7127 35.6461 29.6527C34.8479 29.0377 33.4607 28.3049 32.8326 28.174L32.4531 28.0955V32.0213C32.4531 35.8424 32.4662 35.9471 32.7279 36.1957C34.0627 37.4127 33.2121 39.6504 31.4062 39.6504C29.6004 39.6504 28.7498 37.4127 30.0846 36.1957C30.3463 35.9471 30.3594 35.8424 30.3594 31.7988V27.6506L29.2863 27.4936C28.6844 27.402 28.0824 27.3104 27.9385 27.2711C27.716 27.2188 27.3758 27.6637 25.884 29.9275Z" fill="#1EBDB6" />
                            <path d="M3.14062 47.8945C3.14062 50.6033 3.15371 50.7865 3.40234 51.0352C3.66406 51.2969 3.83418 51.2969 32.4531 51.2969C61.0721 51.2969 61.2422 51.2969 61.5039 51.0352C61.7525 50.7865 61.7656 50.6033 61.7656 47.8945V45.0156H32.4531H3.14062V47.8945ZM34.5469 48.1562V49.2031H31.4062H28.2656V48.1562V47.1094H31.4062H34.5469V48.1562ZM38.7344 48.1562V49.2031H37.6875H36.6406V48.1562V47.1094H37.6875H38.7344V48.1562Z" fill="#1EBDB6" />
                            <path d="M28.2656 56.5312V59.6719H33.5H38.7344V56.5312V53.3906H33.5H28.2656V56.5312Z" fill="#1EBDB6" />
                            <path d="M19.1055 57.8398C18.8961 58.0492 18.8438 58.2717 18.8438 58.8867V59.6719H22.5078H26.1719V58.625V57.5781H22.7695C19.5373 57.5781 19.3541 57.5912 19.1055 57.8398Z" fill="#1EBDB6" />
                            <path d="M40.8281 58.625V59.6719H44.4922H48.1562V58.8867C48.1562 57.552 48.2478 57.5781 44.2305 57.5781H40.8281V58.625Z" fill="#1EBDB6" />
                            <path d="M18.8438 62.8125V63.8594H33.5H48.1562V62.8125V61.7656H33.5H18.8438V62.8125Z" fill="#1EBDB6" />
                        </svg>
