<svg width="51" height="51" viewBox="0 0 51 51" fill="none" xmlns="http://www.w3.org/2000/svg">
                            <g clip-path="url(#clip0_77_2311)">
                                <path d="M13.1484 2.49024V4.98047H14.3437H15.5391V12.3516V19.7227H14.3437H13.1484V22.2129V24.7031H19.7725H26.3965V22.2129V19.7227H25.1514H23.9062V18.9258V18.1289H24.235C24.733 18.1289 25.749 17.86 26.2969 17.5811L26.785 17.332H31.7555C37.1543 17.332 37.3137 17.342 38.4393 17.9098C38.7381 18.0592 39.2262 18.4277 39.5449 18.7365C40.551 19.7227 41.0391 20.8582 41.0391 22.2029C41.0391 24.4541 39.525 26.3666 37.2838 26.9443C36.7957 27.0738 34.9928 27.0938 24.484 27.0938H12.252V30.0322V32.9707H15.798C18.2285 32.9707 19.4836 33.0105 19.7625 33.0902C20.3701 33.2596 21.1869 33.8373 21.5256 34.3254C22.1133 35.182 22.1133 35.182 22.1133 39.9533V44.3262H17.1826H12.252V47.6631V51H27.542H42.832V47.6631V44.3262H38.6982H34.5645V40.7004V37.0846L36.2877 37.0248C37.224 37.0049 38.3895 36.9053 38.8775 36.8156C44.366 35.7996 48.8982 31.7057 50.4422 26.3666C51.1494 23.9162 51.1992 20.908 50.5518 18.4377C49.9242 15.9973 48.6094 13.6863 46.8164 11.8635C44.6848 9.69199 42.2543 8.34727 39.1863 7.65996C38.24 7.44082 37.9611 7.43086 32.5723 7.40098L26.9443 7.37109L26.3566 7.10215C25.5896 6.76348 24.8625 6.57422 24.3346 6.57422H23.9062V5.77734V4.98047H25.1514H26.3965V2.49024V9.53674e-07H19.7725H13.1484V2.49024ZM24.6035 2.49024V3.28711H19.7227H14.8418V2.49024V1.69336H19.7227H24.6035V2.49024ZM22.1133 5.86699V6.76348L21.3762 7.11211C20.5295 7.52051 19.9518 7.97871 19.3441 8.70586C17.86 10.4988 17.6607 13.258 18.876 15.29C19.5135 16.3559 20.6391 17.3221 21.665 17.7105L22.1133 17.8699V18.7963V19.7227H19.7227H17.332V12.3516V4.98047H19.7227H22.1133V5.86699ZM24.5537 8.37715C25.6395 8.57637 26.7352 9.3334 27.3328 10.2896C28.7971 12.6604 27.2531 15.8777 24.4541 16.316C22.0635 16.6945 19.8223 14.782 19.8223 12.3516C19.8223 10.459 21.1471 8.82539 23.0098 8.40703C23.717 8.24766 23.8564 8.24766 24.5537 8.37715ZM38.6982 9.36328C41.4076 9.95098 43.5094 11.0766 45.392 12.9293C47.4539 14.9813 48.7389 17.5412 49.1572 20.4697C49.5258 23.0297 49.1174 25.5199 47.9121 27.9504C46.667 30.5004 44.7445 32.4727 42.2344 33.8074C40.0729 34.9529 38.0309 35.3514 34.3951 35.3613H32.8711V40.7402V46.1191H36.9551H41.0391V47.7129V49.3066H27.542H14.0449V47.7129V46.1191H18.9756H23.9062V40.9096C23.9062 35.2717 23.8863 35.0027 23.3484 33.9369C22.7807 32.8113 21.8344 31.9846 20.5594 31.4965C19.882 31.2475 19.8123 31.2375 16.9635 31.1977L14.0449 31.1578V30.0322V28.8967L25.6295 28.8668C38.5787 28.827 37.5926 28.8867 39.1963 28.0998C40.7004 27.3627 41.9256 25.9482 42.4834 24.3047C42.7324 23.5676 42.7723 23.3086 42.7723 22.2627C42.7822 21.2766 42.7424 20.9379 42.5531 20.3203C42.1945 19.1848 41.6965 18.368 40.8398 17.5113C40.2123 16.8938 39.8836 16.6646 39.1365 16.3061C38.6186 16.057 37.9811 15.798 37.7021 15.7383C37.3734 15.6586 35.7697 15.5988 32.9607 15.5689L28.7174 15.5191L28.9963 15.0111C29.4346 14.1844 29.6139 13.4074 29.6139 12.3516C29.6139 11.2957 29.4445 10.5586 28.9764 9.62227L28.6775 9.04453L33.1898 9.09434C37.3436 9.13418 37.7818 9.16406 38.6982 9.36328ZM24.6035 22.2129V23.0098H19.7227H14.8418V22.2129V21.416H19.7227H24.6035V22.2129Z" fill="#1EBDB6" />
                                <path d="M1.31484 6.8332C0.448242 7.26152 0 8.03848 0 9.08438C0 9.47285 0.0697266 9.86133 0.189258 10.1104C0.378516 10.5287 1.2252 11.3555 1.4543 11.3555C1.57383 11.3555 1.59375 14.2342 1.59375 29.2354C1.59375 42.1746 1.62363 47.2547 1.70332 47.6332C1.98223 48.9182 2.88867 50.0936 4.03418 50.6613C4.58203 50.9303 4.72148 50.9502 5.72754 50.9502C7.05234 50.9502 7.63008 50.751 8.44687 50.0438C9.05449 49.5059 9.39316 49.0178 9.70195 48.2209L9.91113 47.6631L9.94102 29.5143L9.96094 11.3654L10.1701 11.3057C10.4988 11.1961 11.0566 10.6582 11.2758 10.2199C11.3854 10.0008 11.5049 9.54258 11.5348 9.21387C11.5945 8.44688 11.3057 7.72969 10.7379 7.21172C10.0207 6.56426 10.0805 6.57422 5.74746 6.57422H1.83281L1.31484 6.8332ZM9.50273 8.47676C9.78164 8.6959 9.85137 9.11426 9.66211 9.46289C9.48281 9.7916 9.00469 9.86133 6.91289 9.86133H4.88086V10.708V11.5547H6.52441H8.16797L8.18789 16.4854C8.20781 19.1947 8.21777 21.9838 8.21777 22.6711V23.9162L7.6998 24.0955C6.70371 24.4342 5.76738 25.2809 5.28926 26.2969C5.06016 26.785 5.03027 26.9742 5.03027 27.9404C5.03027 28.9963 5.04023 29.066 5.36895 29.7334C5.90684 30.8291 6.5543 31.367 7.99863 31.9547L8.26758 32.0742L8.25762 34.0863V36.1084L8.00859 35.5605C7.20176 33.7875 5.09004 33.1998 3.60586 34.3354L3.25723 34.5943L3.33691 22.2428L3.40664 9.89121L2.7791 9.83145C2.26113 9.78164 2.10176 9.73184 1.92246 9.5127C1.79297 9.37324 1.69336 9.19395 1.69336 9.11426C1.69336 8.85527 1.9125 8.48672 2.13164 8.38711C2.26113 8.31738 3.63574 8.27754 5.7873 8.27754C9.13418 8.26758 9.24375 8.27754 9.50273 8.47676ZM8.16797 27.9902V30.1916L7.89902 30.0422C6.80332 29.4744 6.375 28.0898 6.91289 26.9244C7.13203 26.4563 7.81934 25.7988 8.08828 25.7988C8.12812 25.7988 8.16797 26.785 8.16797 27.9902ZM6.05625 35.7299C6.65391 36.2379 6.64395 37.0348 6.03633 37.5029C5.47852 37.9313 4.77129 37.8018 4.37285 37.1941C3.89473 36.457 4.43262 35.4709 5.3291 35.4609C5.62793 35.4609 5.81719 35.5307 6.05625 35.7299ZM8.24766 43.0811L8.21777 47.3643L7.95879 47.9221C7.54043 48.8086 6.73359 49.3066 5.72754 49.3066C4.76133 49.3066 4.08398 48.8584 3.55605 47.8723C3.33691 47.4738 3.33691 47.3842 3.30703 43.0512L3.27715 38.6285L3.61582 38.8875C4.40273 39.4852 5.63789 39.6246 6.52441 39.2063C7.15195 38.9174 7.77949 38.24 8.02852 37.5926L8.21777 37.1045L8.24766 37.9512C8.26758 38.4193 8.26758 40.7203 8.24766 43.0811Z" fill="#1EBDB6" />
                            </g>
                            <defs>
                                <clipPath id="clip0_77_2311">
                                    <rect width="51" height="51" fill="white" />
                                </clipPath>
                            </defs>
                        </svg>