<svg width="43" height="43" viewBox="0 0 43 43" fill="none" xmlns="http://www.w3.org/2000/svg">
                            <path d="M24.5 27.5625H42.875V30.625H24.5V27.5625Z" fill="#1EBDB6" />
                            <path d="M24.5 33.6875H42.875V36.75H24.5V33.6875Z" fill="#1EBDB6" />
                            <path d="M24.5 39.8125H42.875V42.875H24.5V39.8125Z" fill="#1EBDB6" />
                            <path d="M18.375 24.5C17.9207 24.5 17.4767 24.6347 17.0989 24.8871C16.7212 25.1395 16.4268 25.4982 16.253 25.9179C16.0791 26.3376 16.0336 26.7994 16.1223 27.245C16.2109 27.6905 16.4296 28.0998 16.7509 28.421C17.0721 28.7422 17.4814 28.961 17.9269 29.0496C18.3725 29.1382 18.8343 29.0928 19.254 28.9189C19.6737 28.7451 20.0324 28.4507 20.2848 28.073C20.5372 27.6952 20.6719 27.2512 20.6719 26.7969C20.6719 26.1877 20.4299 25.6035 19.9991 25.1727C19.5684 24.742 18.9842 24.5 18.375 24.5Z" fill="#1EBDB6" />
                            <path d="M16.8438 7.65626H19.9063V21.4375H16.8438V7.65626Z" fill="#1EBDB6" />
                            <path d="M18.375 3.06251C22.4348 3.06697 26.327 4.68167 29.1977 7.55236C32.0683 10.423 33.683 14.3153 33.6875 18.375H36.75C36.75 14.7408 35.6723 11.1882 33.6533 8.1664C31.6342 5.14465 28.7644 2.78948 25.4068 1.39872C22.0492 0.00796163 18.3546 -0.355925 14.7902 0.353079C11.2258 1.06208 7.95171 2.81213 5.38192 5.38192C2.81213 7.95171 1.06208 11.2258 0.353079 14.7902C-0.355925 18.3546 0.00796163 22.0492 1.39872 25.4068C2.78948 28.7644 5.14465 31.6342 8.1664 33.6533C11.1882 35.6723 14.7408 36.75 18.375 36.75V33.6875C14.3139 33.6875 10.4191 32.0742 7.54744 29.2026C4.67578 26.3309 3.06251 22.4361 3.06251 18.375C3.06251 14.3139 4.67578 10.4191 7.54744 7.54744C10.4191 4.67578 14.3139 3.06251 18.375 3.06251Z" fill="#1EBDB6" />
                        </svg>