
                        <svg width="44" height="54" viewBox="0 0 44 54" fill="none" xmlns="http://www.w3.org/2000/svg">
                            <path d="M28.2587 42.7125H3.34336V6.62517H28.2519V9.32483H31.5998V5.88822C31.6021 2.65099 28.9701 0 25.7667 0H5.83303C2.62509 0 0 2.65099 0 5.88822V48.1094C0 51.3514 2.62509 54 5.83303 54H25.7667C28.9701 54 31.6021 51.3514 31.6021 48.1094V42.6498H28.2587V42.7125ZM15.7964 51.0524C14.3186 51.0524 13.1255 49.8451 13.1255 48.3551C13.1255 46.8605 14.3187 45.6555 15.7964 45.6555C17.2764 45.6555 18.472 46.8627 18.472 48.3551C18.472 49.8451 17.2765 51.0524 15.7964 51.0524Z" fill="#1EBDB6" />
                            <path d="M13.6716 10.2471H6.19791V14.8493H13.6716V10.2471Z" fill="#1EBDB6" />
                            <path d="M13.6716 22.0305H6.19791V26.6327H13.6716V22.0305Z" fill="#1EBDB6" />
                            <path d="M13.6716 34.3632H6.19791V38.963H13.6716V34.3632Z" fill="#1EBDB6" />
                            <path d="M40.1978 24.0536C39.9339 22.6585 39.3993 21.3678 38.6421 20.2393L41.3223 17.5304L38.5847 14.7751L35.9091 17.4793C34.7962 16.71 33.5112 16.177 32.1344 15.9082V12.073H28.261V15.9082C26.882 16.177 25.6084 16.7123 24.4841 17.4793L21.8131 14.7751L19.0756 17.5326L21.7512 20.2415C20.9963 21.37 20.464 22.6608 20.2 24.0535H16.4069V27.9628H20.1999C20.4638 29.3508 20.9985 30.6416 21.7534 31.7747L19.0755 34.479L21.813 37.2319L24.4909 34.5299C25.6107 35.2992 26.8888 35.8345 28.2679 36.1057V39.9339H32.1412V36.1034C33.5179 35.8369 34.7938 35.297 35.9159 34.5323L38.5915 37.2343L41.3291 34.479L38.6489 31.7747C39.4061 30.6462 39.9385 29.3532 40.2046 27.9605H44V24.0536H40.1978ZM30.2023 30.2616C27.8733 30.2616 25.9824 28.3614 25.9824 26.007C25.9824 23.655 27.8732 21.7432 30.2023 21.7432C32.5337 21.7432 34.4153 23.6527 34.4153 26.007C34.4153 28.3637 32.529 30.2616 30.2023 30.2616Z" fill="#1EBDB6" />
                        </svg>