   <svg width="62" height="56" viewBox="0 0 62 56" fill="none" xmlns="http://www.w3.org/2000/svg">
                            <path d="M53.8704 0.0948084C52.7063 0.34763 51.2196 1.1693 49.0053 2.7684C46.7973 4.36749 44.5894 6.37743 41.0592 9.9991L40.2178 10.8713H20.1057H0V33.4357V56H23.7245H47.449V42.8786V29.7508L49.4608 27.7093C53.1112 23.9801 56.0531 20.9526 56.0531 20.9084C56.0531 20.7946 50.821 15.991 50.6945 15.991C50.5869 15.991 50.0112 16.5219 48.6384 17.8808L47.449 19.0564V15.7887V12.5273L48.5941 11.3959C50.7451 9.28488 53.0606 6.64921 54.3133 4.8921C54.8257 4.17156 55.4963 2.99594 55.7684 2.32596C56.148 1.39684 56.1416 0.865915 55.7557 0.436118C55.3824 0.0252825 54.7245 -0.0948078 53.8704 0.0948084ZM35.922 14.7016C36.2067 14.7269 36.4408 14.7711 36.4408 14.8027C36.4408 14.8343 36.1498 15.1756 35.7955 15.5612C34.1506 17.3372 33.3724 18.1968 33.1447 18.4623L32.898 18.753L33.2269 19.2208C33.8343 20.0993 35.2704 21.414 36.4851 22.2167L36.9469 22.5201L37.6239 21.8817C38.0035 21.5341 39.4902 20.1436 40.9327 18.791L43.5582 16.326L43.5771 19.6126L43.5898 22.893L41.5843 24.9282C40.4771 26.0533 37.219 29.3526 34.3341 32.26C31.4555 35.1738 29.1147 37.5819 29.1337 37.6135C29.1653 37.6578 31.93 40.2176 34.1569 42.2655L34.5112 42.5941L39.0537 38.0623L43.5898 33.5305V42.9038V52.2709L23.7435 52.2582L3.89082 52.2393L3.87184 33.4989C3.86551 23.1901 3.87184 14.7205 3.89082 14.67C3.92245 14.5941 6.21898 14.5878 19.6629 14.6257C28.3176 14.6447 35.631 14.6826 35.922 14.7016Z" fill="#1EBDB6" />
                            <path d="M30.7974 21.1548C28.1465 24.3024 26.8116 25.99 25.3376 28.0948C25.1667 28.3349 25.0023 28.5562 24.9706 28.5751C24.939 28.6004 24.6543 28.6383 24.3316 28.6573C21.5163 28.8722 18.5808 30.2754 17.2333 32.0641C15.8984 33.8401 15.1139 36.7792 14.8925 40.8307L14.8545 41.6207L15.7022 40.7991C16.7145 39.8257 17.3661 39.3453 18.3214 38.865C18.9857 38.53 19.3653 38.3909 21.1937 37.8347C22.6171 37.3986 23.7939 36.7097 24.6733 35.7995C25.7298 34.6934 26.2676 33.581 26.7357 31.5142C26.8496 30.9959 26.9508 30.5661 26.9635 30.5598C26.9761 30.5535 27.3684 30.269 27.8365 29.9277C29.9686 28.3792 34.5047 24.7322 35.8396 23.4871L36.2192 23.1331L36.0294 22.9751C35.9282 22.893 35.5549 22.6085 35.2069 22.3494C34.3782 21.73 33.5747 20.9778 32.8725 20.1625C32.5625 19.7959 32.2904 19.4925 32.2714 19.4799C32.2461 19.4735 31.5882 20.2257 30.7974 21.1548Z" fill="#1EBDB6" />
                            <path d="M27.7483 39.1431C27.3877 39.7119 25.8061 42.7016 24.5218 45.2551C23.2691 47.758 22.8516 48.6429 22.9148 48.6997C22.9654 48.7566 23.7563 48.428 25.1797 47.7517C26.7614 47.0058 32.9424 43.8961 33.1195 43.7634C33.2397 43.6686 33.2144 43.637 32.4552 42.8975C30.7281 41.2289 28.0899 38.8081 28.0014 38.8081C27.9824 38.8081 27.8685 38.9598 27.7483 39.1431Z" fill="#1EBDB6" />
                            <path d="M56.5907 10.2266C56.325 10.353 55.9454 10.6564 55.3254 11.2316C54.0222 12.4515 51.7952 14.7016 51.8205 14.7774C51.8458 14.8406 52.8771 15.8077 56.0783 18.7657L57.1981 19.8022L58.3432 18.6709C59.9817 17.0402 61.2407 15.7508 61.5064 15.4221C62.0315 14.7648 62.1201 14.3413 61.8164 13.9305C61.4558 13.4438 58.5203 10.6691 57.932 10.2582C57.5587 9.99909 57.0842 9.98644 56.5907 10.2266Z" fill="#1EBDB6" />
                        </svg>