<svg width="38" height="44" viewBox="0 0 38 44" fill="none" xmlns="http://www.w3.org/2000/svg">
<path d="M14.4031 0.800049C14.0971 0.800049 13.8094 0.962682 13.6384 1.22368C5.54741 14.0307 0.245635 37.4114 0.0206348 38.4014C-0.0333651 38.6444 0.0209864 38.8978 0.155986 39.0958L1.95599 41.7958C1.99199 41.8588 2.04613 41.9213 2.10013 41.9663C3.29713 37.8893 8.68841 20.6727 18.1384 5.72368C18.3094 5.46268 18.5971 5.30005 18.9031 5.30005C19.2091 5.30005 19.4967 5.46268 19.6677 5.72368C21.9177 9.28768 24.1139 13.2565 26.1839 17.5045C26.3999 17.9545 26.2206 18.4944 25.7796 18.7104L9.42669 26.7928C9.24669 27.2248 9.07562 27.6565 8.90462 28.0795C12.0006 27.0805 18.588 25.127 28.056 23.228C28.47 23.147 28.8834 23.3718 29.0544 23.7588C32.7534 32.2998 34.9858 39.5005 35.7148 41.9575C35.7238 41.9575 35.7339 41.9489 35.7429 41.9399L37.5429 40.1399C37.7589 39.9239 37.8485 39.6072 37.7855 39.3102C37.5605 38.2842 32.2587 14.0307 24.1677 1.22368C23.9967 0.962682 23.7091 0.800049 23.4031 0.800049H14.4031ZM18.9031 7.90161C15.5641 13.3646 12.765 19.0615 10.506 24.2545L14.6544 22.2014C15.9324 19.2944 17.3551 16.307 18.9031 13.4C19.8481 15.173 20.7395 16.9737 21.5855 18.7737L24.1765 17.4958C22.4845 14.0848 20.7121 10.8626 18.9031 7.90161ZM27.6868 25.1458C16.7608 27.3688 9.88478 29.6185 8.03978 30.2575C7.78778 30.8875 7.56341 31.4986 7.33841 32.0926C11.9194 31.3186 25.0865 29.4643 29.2355 28.8793C28.7585 27.6733 28.2449 26.4238 27.6868 25.1458ZM29.9105 30.6073C29.2445 30.6973 28.2002 30.8421 26.9222 31.0221C28.9022 36.2781 30.3058 40.7508 30.9898 43.0368L33.9868 42.4426C33.4468 40.6426 32.0885 36.2233 29.9105 30.6073ZM25.4544 32.2368C26.0934 36.7728 26.1031 40.3641 26.1031 40.4001C26.1031 40.7421 26.2928 41.0576 26.5988 41.2016L28.9015 42.353C28.1815 40.022 27.0024 36.4038 25.4544 32.2368ZM12.4853 33.1104C12.3233 33.1374 12.1619 33.1555 12.0089 33.1825C10.6229 36.9355 9.57062 40.193 8.90462 42.353L11.2074 41.2016C11.5134 41.0576 11.7031 40.7421 11.7031 40.4001C11.7031 40.3731 11.7203 37.9164 12.4853 33.1104ZM9.97513 33.4971C8.42713 33.7311 7.22992 33.9283 6.60892 34.0543C5.17792 38.0053 4.25106 41.0206 3.82806 42.4426L6.80755 43.0368C7.38355 41.1198 8.47213 37.6641 9.97513 33.4971Z" fill="#1EBDB6" />
</svg>