<svg width="44" height="44" viewBox="0 0 44 44" fill="none" xmlns="http://www.w3.org/2000/svg">
<path d="M44 27.1555C43.7468 27.7766 43.3732 28.2807 42.6777 28.4377C41.5674 28.6886 40.5705 27.8889 40.5659 26.7293C40.5568 24.3667 40.5625 22.004 40.5625 19.6414C40.5625 16.5763 40.5659 13.5125 40.5614 10.4474C40.5568 6.45431 37.5409 3.44085 33.5454 3.43856C25.8408 3.43512 18.1362 3.43512 10.4328 3.43856C6.46364 3.44085 3.44094 6.46118 3.43979 10.4257C3.43521 18.1438 3.43521 25.8631 3.43979 33.5812C3.44209 37.5216 6.46594 40.5534 10.4007 40.5592C15.785 40.566 21.1693 40.5592 26.5535 40.5626C27.4954 40.5626 28.207 41.1527 28.3445 42.0281C28.474 42.8508 27.9904 43.607 27.1356 43.9221C27.0829 43.9416 27.0348 43.9736 26.9855 43.9989C21.1131 43.9989 15.2407 43.9989 9.36833 43.9989C9.28813 43.9221 9.18385 43.9313 9.08531 43.9198C5.02448 43.4512 1.56865 40.5236 0.418232 36.5958C0.229169 35.9496 0.163854 35.2816 0 34.6319C0 26.2103 0 17.7886 0 9.36694C0.0263542 9.27184 0.06302 9.17903 0.0779158 9.08278C0.70927 4.92352 2.99979 2.09911 6.91625 0.580923C7.70802 0.273848 8.54677 0.178745 9.36719 0C17.7891 0 26.2109 0 34.6328 0C34.7268 0.0263535 34.8196 0.0664558 34.9158 0.0779138C39.0924 0.566026 42.5964 3.61387 43.6551 7.69636C43.7972 8.24635 43.8854 8.81008 43.9989 9.36809C44 15.2965 44 21.226 44 27.1555Z" fill="#1EBDB6" />
<path d="M37.0391 43.9989C36.7331 43.9301 36.426 43.8705 36.1235 43.7915C35.1232 43.5279 34.2192 43.0639 33.4847 42.3363C31.2767 40.1512 29.0606 37.9731 26.9042 35.7388C25.1339 33.9043 24.1771 31.6448 23.7302 29.1504C23.4804 27.7571 23.1836 26.373 22.9109 24.9854C22.6543 23.6815 23.6844 22.6457 24.986 22.9126C26.9454 23.3148 28.9288 23.6104 30.8596 24.1432C32.8144 24.6818 34.5205 25.6855 35.9643 27.1051C38.0566 29.163 40.1259 31.2438 42.193 33.3257C43.1486 34.2882 43.7238 35.4523 43.9244 36.7975C43.937 36.88 43.9748 36.959 44 37.0392C44 37.4976 44 37.9559 44 38.4142C43.9736 38.4944 43.9381 38.5723 43.9232 38.6537C43.4408 41.2844 41.9169 42.9905 39.3651 43.7777C39.0546 43.874 38.7315 43.9267 38.4129 44C37.9557 43.9989 37.4974 43.9989 37.0391 43.9989ZM40.5659 37.7943C40.5419 36.8891 40.2187 36.2017 39.6321 35.6184C37.8251 33.8218 35.962 32.0756 34.2421 30.1988C32.2873 28.0665 29.7917 27.2346 27.0646 26.8187C26.8457 26.7854 26.7781 26.853 26.824 27.0673C26.9133 27.4867 27.005 27.906 27.076 28.3288C27.3705 30.0636 27.9102 31.7124 29.111 33.0301C31.2916 35.4202 33.6199 37.6706 35.9528 39.9095C36.7847 40.7081 37.8709 40.7791 38.924 40.2864C39.9953 39.7846 40.5075 38.8874 40.5659 37.7943Z" fill="#1EBDB6" />
<path d="M21.992 15.984C25.8718 15.984 29.7504 15.9828 33.6302 15.9851C34.3532 15.9851 34.9044 16.3013 35.2252 16.9522C35.538 17.5881 35.459 18.208 35.0293 18.7671C34.6958 19.2002 34.2364 19.4133 33.6886 19.4202C33.1444 19.4271 32.6013 19.4225 32.057 19.4225C24.9139 19.4225 17.7707 19.4225 10.6276 19.4214C10.4133 19.4214 10.1945 19.4282 9.98708 19.387C9.10708 19.2117 8.51927 18.4176 8.60177 17.54C8.68542 16.6508 9.41646 15.9897 10.356 15.9885C14.2335 15.9817 18.1133 15.984 21.992 15.984Z" fill="#1EBDB6" />
<path d="M25.8294 12.5465C23.2249 12.5465 20.6193 12.5523 18.0148 12.5443C16.7796 12.5397 15.9569 11.4214 16.3327 10.2859C16.5642 9.58694 17.1967 9.12174 17.9609 9.11257C18.8765 9.10226 19.7931 9.11028 20.7086 9.11028C25.0021 9.11028 29.2967 9.10799 33.5901 9.11143C34.8574 9.11257 35.695 10.2194 35.3157 11.371C35.0774 12.094 34.43 12.5454 33.6004 12.5465C31.0097 12.5488 28.419 12.5465 25.8294 12.5465Z" fill="#1EBDB6" />
<path d="M13.4062 22.8588C14.4077 22.8588 15.4092 22.8542 16.4095 22.8599C17.4545 22.8657 18.2165 23.5944 18.2176 24.5763C18.2176 25.5583 17.4545 26.2916 16.4106 26.2939C14.4077 26.2996 12.4059 26.2996 10.403 26.2939C9.35916 26.2916 8.59604 25.5571 8.59604 24.5763C8.59604 23.5944 9.35916 22.8645 10.403 22.8588C11.4033 22.8553 12.4048 22.8588 13.4062 22.8588Z" fill="#1EBDB6" />
<path d="M12.8895 10.6548C12.8895 11.8419 11.9201 12.8078 10.7319 12.8032C9.54594 12.7986 8.58573 11.8235 8.5949 10.6354C8.60407 9.46663 9.56084 8.51447 10.7307 8.50988C11.9201 8.50301 12.8883 9.46663 12.8895 10.6548Z" fill="#1EBDB6" />
</svg>