<svg width="67" height="67" viewBox="0 0 67 67" fill="none" xmlns="http://www.w3.org/2000/svg">
<path d="M52.3445 0C52.8801 0.228562 53.4611 0.347203 53.9514 0.690918C55.2076 1.57027 55.8374 2.78636 55.8392 4.30429C55.8479 12.4592 55.8409 20.6142 55.8514 28.7691C55.8514 29.1913 55.7397 29.3484 55.3018 29.3205C54.7156 29.2838 54.1241 29.2873 53.5361 29.3187C53.1261 29.3414 53.018 29.1913 53.0232 28.797C53.0424 27.1186 53.0302 25.4384 53.0302 23.76C53.0302 17.4143 53.0302 11.0687 53.0302 4.72477C53.0302 3.19637 52.6149 2.78113 51.0936 2.78113C35.6338 2.78113 20.1757 2.78113 4.71593 2.78113C3.25038 2.78113 2.78455 3.23999 2.78455 4.68464C2.78455 15.5213 2.7828 26.3579 2.78455 37.1962C2.78455 38.6339 3.25561 39.0945 4.72291 39.0945C10.3478 39.0945 15.9745 39.1032 21.5994 39.0823C22.1926 39.0806 22.4194 39.2271 22.3566 39.8395C22.3043 40.3577 22.3252 40.8864 22.3514 41.4081C22.3706 41.7884 22.2223 41.8983 21.8594 41.8826C21.2505 41.8582 20.6381 41.8913 20.0274 41.8704C19.6785 41.8582 19.5197 41.9385 19.5232 42.3345C19.5424 43.8821 19.5441 45.4314 19.5232 46.979C19.518 47.41 19.7081 47.4798 20.0745 47.4763C21.5575 47.4623 23.0405 47.492 24.5218 47.4588C25.0173 47.4484 25.183 47.5914 25.1289 48.08C25.0522 48.7866 25.436 49.7392 24.9754 50.1405C24.5741 50.4912 23.6477 50.2487 22.9533 50.2504C20.1618 50.2557 17.372 50.2417 14.5805 50.2626C14.1042 50.2661 13.9175 50.1597 13.9576 49.6555C14.0117 48.9646 13.7413 48.066 14.085 47.6281C14.4514 47.1605 15.3918 47.4763 16.0757 47.4902C16.6235 47.5007 16.7736 47.3402 16.7596 46.7993C16.723 45.3617 16.7247 43.9205 16.7596 42.4828C16.7718 41.9943 16.641 41.8652 16.1489 41.8687C12.3333 41.8896 8.51763 41.8809 4.70197 41.8809C2.18437 41.8809 0.889797 40.9509 0.087235 38.5694C0.0750221 38.5327 0.0296599 38.51 0 38.4786C0 26.7888 0 15.099 0 3.40924C0.261705 2.87011 0.406516 2.28213 0.76418 1.77964C1.42542 0.849693 2.36581 0.362909 3.40217 0.00698048C19.7186 1.49103e-06 36.0316 0 52.3445 0Z" fill="#1EBDB6" />
<path d="M61.3733 66.9983C61.0209 66.8203 60.7173 66.5847 60.4364 66.3021C57.713 63.5681 54.9808 60.841 52.252 58.1105C51.2994 57.1561 51.3029 56.5158 52.259 55.5545C52.9185 54.8897 52.9185 54.8897 52.2346 54.2058C51.6327 53.6038 51.0133 53.0193 50.4375 52.3947C50.1183 52.0475 49.9107 51.9969 49.4937 52.3162C41.147 58.6845 29.0946 54.9072 25.846 44.9185C22.9027 35.8685 29.1016 26.2724 38.5614 25.2308C46.8173 24.3218 54.2218 30.0585 55.314 38.271C55.8583 42.3659 54.8656 46.1067 52.3724 49.4112C52.0026 49.8997 52.0723 50.137 52.4719 50.5069C53.1924 51.1717 53.8781 51.8765 54.5551 52.5849C54.7976 52.8396 54.965 52.9059 55.218 52.6023C56.3259 51.2659 57.1006 51.1507 58.526 52.632C60.9756 55.1758 63.5124 57.6377 66.0073 60.1397C66.3562 60.4886 66.6702 60.8742 67 61.2423C67 61.5477 67 61.853 67 62.1583C65.4891 63.8752 63.8752 65.489 62.1585 67C61.8967 66.9983 61.635 66.9983 61.3733 66.9983ZM40.2468 52.6547C47.0528 52.7018 52.5905 47.2093 52.6463 40.3577C52.7022 33.5515 47.2116 27.9735 40.3881 27.9055C33.575 27.8374 27.9536 33.3805 27.903 40.2146C27.8541 47.0384 33.3796 52.6076 40.2468 52.6547ZM56.8476 54.9525C56.7359 55.052 56.6365 55.1357 56.5457 55.2265C56.1288 55.64 55.7327 56.0779 55.2931 56.4635C54.9703 56.7479 54.9912 56.9206 55.2948 57.2172C56.9244 58.8171 58.5242 60.4485 60.1503 62.0519C60.6685 62.5631 61.1518 63.5088 61.7345 63.4529C62.3067 63.3988 62.7918 62.5108 63.3344 62.0118C63.5839 61.7832 63.5804 61.6419 63.3361 61.4011C61.2652 59.3493 59.2099 57.2835 57.1477 55.223C57.0552 55.134 56.9575 55.052 56.8476 54.9525Z" fill="#1EBDB6" />
<path d="M40.8033 5.59715C42.2165 5.65123 43.5338 6.4259 44.2631 8.02235C44.9993 9.63798 44.783 11.1995 43.6053 12.5308C42.4486 13.8393 40.9603 14.2528 39.2767 13.7538C38.8196 13.6177 38.5404 13.6561 38.2037 14.0086C37.1342 15.1287 36.0333 16.2174 34.9237 17.2957C34.6253 17.587 34.5346 17.8243 34.6724 18.2518C35.4227 20.574 34.1176 22.9469 31.785 23.575C29.4942 24.1926 27.172 22.7951 26.6346 20.4554C26.4549 19.6772 26.4811 18.8904 26.7794 18.1401C26.905 17.8243 26.837 17.6289 26.6015 17.4004C25.4186 16.2401 24.2444 15.0694 23.0876 13.8829C22.8312 13.6195 22.6166 13.6003 22.2868 13.7207C21.397 14.0435 20.4828 14.0539 19.5982 13.7172C19.2214 13.5741 19.0085 13.6596 18.7486 13.9248C17.1557 15.5387 15.5348 17.1264 13.9524 18.7508C13.6209 19.091 13.4412 19.0701 13.1498 18.7333C12.7782 18.3059 12.3752 17.9011 11.9477 17.5312C11.6075 17.2381 11.6616 17.0549 11.9582 16.7635C13.5598 15.188 15.1353 13.5863 16.7352 12.0108C17.0283 11.723 17.1312 11.4961 16.9847 11.0652C16.3862 9.31346 17.0196 7.43088 18.5043 6.37007C19.9716 5.32148 21.9431 5.32671 23.3964 6.38228C24.8777 7.45704 25.4883 9.32044 24.8934 11.0861C24.7625 11.4735 24.8201 11.7003 25.1115 11.9812C26.2717 13.103 27.4058 14.2511 28.5381 15.4009C28.7771 15.6451 28.9743 15.7324 29.3284 15.598C30.2566 15.2438 31.2127 15.2596 32.1426 15.6102C32.4375 15.7219 32.6189 15.6731 32.83 15.4585C34.0095 14.2633 35.1871 13.0664 36.3979 11.9027C36.719 11.5938 36.5986 11.3426 36.5009 11.0285C35.6565 8.31197 37.6367 5.60412 40.8033 5.59715ZM40.512 11.1472C41.2692 11.1332 41.8711 10.5243 41.8728 9.77058C41.8728 9.00115 41.2221 8.36257 40.4526 8.38002C39.6745 8.39746 39.0778 9.04127 39.1075 9.83339C39.1354 10.5993 39.7356 11.1611 40.512 11.1472ZM30.7347 18.1646C29.9443 18.1523 29.3127 18.77 29.318 19.5481C29.3232 20.2897 29.9408 20.9178 30.6823 20.9335C31.457 20.9492 32.0885 20.3193 32.0851 19.5359C32.0833 18.763 31.5058 18.1768 30.7347 18.1646ZM20.9225 11.1454C21.7058 11.1524 22.3461 10.5208 22.3357 9.75139C22.3252 9.00987 21.6989 8.38874 20.9556 8.37827C20.1862 8.36955 19.5354 9.0186 19.5459 9.78279C19.5546 10.5348 20.1653 11.1385 20.9225 11.1454Z" fill="#1EBDB6" />
<path d="M10.6148 36.2802C9.99191 36.2645 9.27135 36.3256 8.56649 36.1127C6.89681 35.6085 5.68598 34.0941 5.61445 32.3546C5.57955 31.5066 5.61271 30.6552 5.59178 29.8055C5.58305 29.4583 5.65632 29.2873 6.05412 29.3065C6.68395 29.3362 7.31902 29.3327 7.95061 29.3065C8.30827 29.2925 8.39376 29.4304 8.38503 29.7601C8.36584 30.4999 8.36934 31.2432 8.38155 31.9829C8.399 32.9373 8.9381 33.4799 9.88896 33.4974C10.6078 33.5113 11.3284 33.5183 12.0472 33.4939C12.4258 33.4799 12.602 33.5567 12.5758 33.9876C12.5374 34.5948 12.5444 35.209 12.5741 35.8179C12.5933 36.2052 12.438 36.3064 12.0821 36.2872C11.6232 36.2611 11.1661 36.2802 10.6148 36.2802Z" fill="#1EBDB6" />
<path d="M6.99451 23.7163C8.37806 23.7163 8.37806 23.7163 8.37806 25.1086C8.37806 26.5306 8.37806 26.5306 6.95961 26.5306C5.597 26.5306 5.597 26.5306 5.597 25.1714C5.597 25.1505 5.597 25.1278 5.597 25.1069C5.597 23.7163 5.597 23.7163 6.99451 23.7163Z" fill="#1EBDB6" />
<path d="M48.8534 40.4676C47.5693 40.4676 47.5693 40.4676 47.3459 39.2167C46.7929 36.1407 44.2264 33.8097 41.0354 33.5305C40.5835 33.4904 40.4334 33.3683 40.4631 32.9216C40.4997 32.3807 40.4997 31.8329 40.4631 31.2903C40.4317 30.8175 40.6149 30.7128 41.0633 30.7267C45.4233 30.8523 49.5024 34.5216 50.1218 38.9009C50.1253 38.9218 50.1253 38.9445 50.1287 38.9654C50.3294 40.4676 50.3294 40.4676 48.8534 40.4676Z" fill="#1EBDB6" />
</svg>