<svg width="49" height="43" viewBox="0 0 49 43" fill="none" xmlns="http://www.w3.org/2000/svg">
<path d="M45.185 22.4972H39.985C38.055 22.4972 36.49 24.0499 36.49 25.9648V39.8152H33.39V20.1905C33.39 18.2756 31.82 16.7229 29.895 16.7229H24.695C22.765 16.7229 21.2 18.2806 21.2 20.1905V39.8152H18.1V28.9859C18.1 27.071 16.53 25.5183 14.605 25.5183H9.4C7.47 25.5183 5.905 27.076 5.905 28.9859V39.8202H3.495C3.335 39.8202 3.205 39.6912 3.205 39.5324V1.62734C3.205 0.734409 2.47 -0.0146642 1.57 0.000218012C0.7 0.0151003 0 0.724487 0 1.59262V39.5324C0 41.4473 1.565 43 3.495 43H46.7C47.795 43 48.68 42.1219 48.68 41.0355V25.9648C48.68 24.0499 47.115 22.4972 45.185 22.4972ZM9.11 39.8202V28.9859C9.11 28.8271 9.24 28.6982 9.4 28.6982H14.6C14.76 28.6982 14.89 28.8271 14.89 28.9859V39.8202H9.11ZM24.4 39.8202V20.1905C24.4 20.0317 24.53 19.9027 24.69 19.9027H29.89C30.05 19.9027 30.18 20.0317 30.18 20.1905V39.8152H24.4V39.8202ZM45.475 39.8202H39.695V25.9648C39.695 25.806 39.825 25.6771 39.985 25.6771H45.185C45.345 25.6771 45.475 25.806 45.475 25.9648V39.8202Z" fill="#1EBDB6" />
<path d="M47.395 12.0747C46.51 12.0747 45.795 11.3653 45.79 10.4872L45.78 3.4231L38.66 3.43303C37.775 3.43303 37.06 2.72364 37.055 1.84559C37.055 0.967534 37.77 0.253186 38.655 0.253186L47.38 0.238304C48.265 0.238304 48.98 0.947691 48.985 1.82574L49 10.4823C49 11.3603 48.285 12.0697 47.395 12.0747C47.4 12.0747 47.4 12.0747 47.395 12.0747Z" fill="#1EBDB6" />
<path d="M7.81503 19.7143C7.23503 19.7143 6.68003 19.4017 6.39503 18.861C5.98503 18.0822 6.29003 17.1198 7.07503 16.713L25.71 7.05939L36.475 9.96142L43.75 3.50749C44.41 2.92212 45.425 2.97669 46.015 3.63151C46.605 4.28633 46.55 5.29336 45.89 5.87873L37.31 13.4836L26.075 10.4575L8.55503 19.5357C8.32003 19.6547 8.06503 19.7143 7.81503 19.7143Z" fill="#1EBDB6" />
</svg>
