 <svg width="50" height="50" viewBox="0 0 50 50" fill="none" xmlns="http://www.w3.org/2000/svg">
                            <path d="M49.45 7.44996C49.47 6.77996 49.345 6.50996 49.22 6.23996L48.845 5.42496C48.72 5.15496 48.32 5.00996 48.195 4.73996C47.545 4.05496 46.625 3.49496 45.435 3.05496C44.64 2.76496 43.85 2.47496 43.18 2.45496C42.91 2.57996 42.51 2.43496 42.24 2.55996C41.845 2.41496 41.3 2.66496 41.03 2.79496C40.76 2.91996 40.345 3.44496 40.075 3.56996C39.805 3.69496 39.39 4.21996 39.245 4.61496C38.975 4.73996 38.955 5.40996 38.54 5.92996L37.96 7.51496L48.275 11.285L48.565 10.49L48.8549 9.69496L49.29 8.50496C49.435 8.11996 49.58 7.72496 49.45 7.44996Z" fill="#1EBDB6" />
                            <path d="M32.4299 23.2699L30.8349 27.6349L29.3849 31.6049L28.2249 34.7799C27.9349 35.5749 27.7899 35.9699 27.9149 36.2399C27.4999 36.7599 27.3549 37.1599 27.4799 37.4299C27.3349 37.8249 27.4599 38.0999 27.3149 38.4949C27.1699 38.8949 27.4199 39.4349 27.4049 40.0999C27.3849 40.7699 27.7599 41.5799 27.3499 42.1049C27.4549 43.0449 27.8299 43.8549 27.8149 44.5249C28.1949 45.3399 28.1749 46.0049 28.2999 46.2749C28.5499 46.8149 28.8049 47.3599 29.1999 47.5049C29.5999 47.6499 30.1399 47.3999 30.6799 47.1449C30.9499 47.0199 31.4899 46.7699 31.9099 46.2449C32.7249 45.8649 33.1399 45.3449 33.5549 44.8199C34.2399 44.1699 34.9249 43.5249 35.3449 42.9999C36.0299 42.3499 36.5749 42.0999 36.7149 41.6999C37.2549 41.4499 37.3999 41.0499 37.5449 40.6549L37.9799 39.4649L38.4149 38.2749L39.4299 35.4999L40.8799 31.5299L42.7449 27.0399L46.9499 15.5299L36.6349 11.7599L32.4299 23.2699Z" fill="#1EBDB6" />
                            <path d="M3.155 10.455H31.44C32.91 10.455 34.1 9.08999 34.1 7.40999C34.1 5.72499 32.91 4.36499 31.44 4.36499H3.155C1.69 4.36499 0.5 5.72999 0.5 7.40999C0.5 9.08999 1.69 10.455 3.155 10.455Z" fill="#1EBDB6" />
                            <path d="M17.3 40.9349H3.155C1.69 40.9349 0.5 42.2999 0.5 43.9849C0.5 45.6699 1.69 47.0299 3.155 47.0299H17.3C18.765 47.0299 19.955 45.6649 19.955 43.9849C19.96 42.2999 18.77 40.9349 17.3 40.9349Z" fill="#1EBDB6" />
                            <path d="M21.2 28.74H3.155C1.69 28.74 0.5 30.105 0.5 31.79C0.5 33.475 1.69 34.835 3.155 34.835H21.2C22.665 34.835 23.855 33.47 23.855 31.79C23.86 30.11 22.67 28.74 21.2 28.74Z" fill="#1EBDB6" />
                            <path d="M28.685 19.5999C28.685 17.9149 27.495 16.5549 26.03 16.5549H3.155C1.69 16.5499 0.5 17.9149 0.5 19.5999C0.5 21.2849 1.69 22.6449 3.155 22.6449H26.03C27.5 22.6449 28.685 21.2799 28.685 19.5999Z" fill="#1EBDB6" />
                        </svg>