  <svg width="56" height="56" viewBox="0 0 56 56" fill="none" xmlns="http://www.w3.org/2000/svg">
                            <path d="M3.22656 1.95781C2.69063 2.20938 2.14375 2.76719 1.925 3.30313C1.68438 3.86094 1.70625 4.97656 1.95781 5.52344C2.15469 5.97187 2.77812 6.59531 3.2375 6.80313L3.5 6.92344V8.95781V10.9813L5.44687 12.9281L7.39375 14.875H12.4141H17.4453L17.7297 15.8594L18.0141 16.8328L17.4234 17.4344L16.8328 18.025L15.7828 17.7078C15.2031 17.5328 14.5906 17.3906 14.4156 17.3906C14.0437 17.3906 13.7156 17.7078 13.1687 18.6156L12.7859 19.25H11.1672C9.57031 19.25 9.54844 19.25 9.42812 18.9875C9.22031 18.5281 8.59687 17.9047 8.14844 17.7078C7.60156 17.4562 6.48594 17.4344 5.92812 17.675C4.95469 18.0797 4.375 18.9875 4.375 20.125C4.375 21.2625 4.95469 22.1703 5.92812 22.575C6.48594 22.8156 7.60156 22.7938 8.14844 22.5422C8.59687 22.3453 9.22031 21.7219 9.42812 21.2625C9.54844 21.0109 9.59219 21 10.7188 21H11.9L11.9656 21.3281C12.0094 21.5469 12.3156 21.9297 12.9062 22.5094L13.7922 23.3516L13.6062 24.1391L13.4094 24.9266L12.1844 25.2109C10.7406 25.55 10.5984 25.6703 10.5219 26.5234L10.4781 27.125H8.69531C6.93437 27.125 6.92344 27.125 6.80312 26.8625C6.59531 26.4031 5.97187 25.7797 5.52344 25.5828C4.97656 25.3313 3.86094 25.3094 3.30313 25.55C2.32969 25.9547 1.75 26.8625 1.75 28C1.75 28.875 1.99062 29.4438 2.59219 29.9797C3.17188 30.5047 3.675 30.6578 4.59375 30.6031C5.50156 30.5594 6.10313 30.1984 6.61719 29.4L6.94531 28.8859H8.70625L10.4781 28.875L10.5219 29.4766C10.5984 30.3297 10.7406 30.45 12.1844 30.7891L13.4094 31.0734L13.6062 31.8609L13.7922 32.6484L12.9062 33.4906C12.3156 34.0703 12.0094 34.4531 11.9656 34.6719L11.9 35H10.7188C9.59219 35 9.54844 34.9891 9.42812 34.7375C9.22031 34.2781 8.59687 33.6547 8.14844 33.4578C7.55781 33.1844 6.43125 33.1844 5.85156 33.4578C4.9 33.8953 4.375 34.7703 4.375 35.8969C4.375 36.75 4.62656 37.3297 5.21719 37.8547C5.79688 38.3797 6.3 38.5328 7.21875 38.4781C8.12656 38.4344 8.72813 38.0734 9.24219 37.275L9.57031 36.7609H11.1781L12.7859 36.75L13.1687 37.3844C13.7156 38.2922 14.0437 38.6094 14.4156 38.6094C14.5906 38.6094 15.2031 38.4672 15.7828 38.2922L16.8328 37.975L17.4234 38.5656L18.0141 39.1672L17.7297 40.1406L17.4453 41.125H12.4141H7.39375L5.44687 43.0719L3.5 45.0188V47.0422V49.0766L3.2375 49.1969C2.77812 49.4047 2.15469 50.0281 1.95781 50.4766C1.70625 51.0234 1.68438 52.1391 1.925 52.6969C2.32969 53.6703 3.2375 54.25 4.375 54.25C5.5125 54.25 6.42031 53.6703 6.825 52.6969C7.06562 52.1391 7.04375 51.0234 6.79219 50.4766C6.59531 50.0281 5.97187 49.4047 5.5125 49.1969C5.25 49.0766 5.25 49.0547 5.25 47.5344V45.9922L6.81406 44.4281L8.36719 42.875H13.5516H18.725L19.3594 43.2578C19.7094 43.4656 20.2234 43.7391 20.4969 43.8703L21 44.0891V45.8609V47.6328L19.4359 49.1969L17.8828 50.75H17.2156C16.625 50.75 16.5375 50.7172 16.4281 50.4875C16.2203 50.0281 15.5969 49.4047 15.1484 49.2078C14.5578 48.9344 13.4312 48.9344 12.8516 49.2078C11.9109 49.6453 11.375 50.5203 11.375 51.625C11.375 52.7297 11.9109 53.6047 12.8516 54.0422C13.4312 54.3156 14.5578 54.3156 15.1484 54.0422C15.5969 53.8453 16.2203 53.2219 16.4281 52.7625C16.5484 52.5109 16.5922 52.5 17.7078 52.5H18.8562L20.8031 50.5531L22.75 48.6063V45.7078V42.8094L23.0562 42.5141L23.3734 42.2078L24.15 42.4047L24.9266 42.5906L25.2109 43.8156C25.55 45.2594 25.6703 45.4016 26.5234 45.4781L27.125 45.5219V47.3047C27.125 49.0656 27.125 49.0766 26.8625 49.1969C26.4031 49.4047 25.7797 50.0281 25.5828 50.4766C25.3312 51.0234 25.3094 52.1391 25.55 52.6969C25.9547 53.6703 26.8625 54.25 28 54.25C28.875 54.25 29.4438 54.0094 29.9797 53.4078C30.5047 52.8281 30.6578 52.325 30.6031 51.4062C30.5594 50.4984 30.1984 49.8969 29.4 49.3828L28.8859 49.0547V47.2938L28.875 45.5219L29.4766 45.4781C30.3297 45.4016 30.45 45.2594 30.7891 43.8156L31.0734 42.5906L31.85 42.4047L32.6266 42.2078L32.9438 42.5141L33.25 42.8094V45.7078V48.6063L35.1969 50.5531L37.1437 52.5L38.2812 52.5109H39.4297L39.7578 53.025C40.2719 53.8234 40.8734 54.1844 41.7812 54.2281C42.7 54.2828 43.2031 54.1297 43.7828 53.6047C44.3844 53.0688 44.625 52.5 44.625 51.625C44.625 50.75 44.3844 50.1813 43.7828 49.6453C43.2031 49.1203 42.7 48.9672 41.7812 49.0219C40.8734 49.0656 40.2719 49.4266 39.7578 50.225L39.4297 50.7391H38.7734L38.1172 50.75L36.5531 49.1859L35 47.6328V45.8609V44.0891L35.5031 43.8703C35.7766 43.7391 36.2906 43.4656 36.6406 43.2578L37.275 42.875H42.4484H47.6328L49.1969 44.4391L50.75 45.9922V47.5344C50.75 49.0547 50.75 49.0766 50.4875 49.1969C50.0281 49.4047 49.4047 50.0281 49.2078 50.4766C48.9344 51.0672 48.9344 52.1938 49.2078 52.7734C49.6453 53.725 50.5203 54.25 51.6469 54.25C52.7625 54.2391 53.6812 53.6594 54.075 52.6969C54.3156 52.1391 54.2938 51.0234 54.0422 50.4766C53.8453 50.0281 53.2219 49.4047 52.7625 49.1969L52.5 49.0766V47.0422V45.0188L50.5531 43.0719L48.6063 41.125H43.5859H38.5547L38.2703 40.1406L37.9859 39.1672L38.5766 38.5656L39.1672 37.975L40.2172 38.2922C40.7969 38.4672 41.4094 38.6094 41.5844 38.6094C41.9562 38.6094 42.2844 38.2922 42.8312 37.3844L43.2141 36.75L44.8219 36.7609H46.4297L46.7578 37.275C47.2719 38.0734 47.8734 38.4344 48.7812 38.4781C49.7 38.5328 50.2031 38.3797 50.7828 37.8547C51.3844 37.3188 51.625 36.75 51.625 35.875C51.625 35 51.3844 34.4312 50.7828 33.8953C50.2031 33.3703 49.7 33.2172 48.7812 33.2719C47.8734 33.3156 47.2719 33.6766 46.7578 34.475L46.4297 34.9891H45.2703L44.1109 35L44.0344 34.6719C43.9906 34.4531 43.6844 34.0703 43.0938 33.4906L42.2078 32.6484L42.3937 31.8609L42.5906 31.0734L43.8156 30.7891C45.2594 30.45 45.4016 30.3297 45.4781 29.4766L45.5219 28.875L47.2938 28.8859H49.0547L49.3828 29.4C49.8969 30.1984 50.4984 30.5594 51.4062 30.6031C52.325 30.6578 52.8281 30.5047 53.4078 29.9797C54.0094 29.4438 54.25 28.875 54.25 28C54.25 26.8625 53.6703 25.9547 52.6969 25.55C52.1391 25.3094 51.0234 25.3313 50.4766 25.5828C50.0281 25.7797 49.4047 26.4031 49.1969 26.8625C49.0766 27.125 49.0656 27.125 47.3047 27.125H45.5219L45.4781 26.5234C45.4016 25.6703 45.2594 25.55 43.8156 25.2109L42.5906 24.9266L42.3937 24.1391L42.2078 23.3516L43.0938 22.5094C43.6844 21.9297 43.9906 21.5469 44.0344 21.3281L44.1 21L45.2703 21.0109H46.4297L46.7578 21.525C47.2719 22.3234 47.8734 22.6844 48.7812 22.7281C49.7 22.7828 50.2031 22.6297 50.7828 22.1047C51.3844 21.5688 51.625 21 51.625 20.125C51.625 18.9875 51.0453 18.0797 50.0719 17.675C49.5141 17.4344 48.3984 17.4562 47.8516 17.7078C47.4031 17.9047 46.7797 18.5281 46.5719 18.9875C46.4516 19.25 46.4297 19.25 44.8328 19.25H43.2141L42.8312 18.6156C42.2844 17.7078 41.9562 17.3906 41.5844 17.3906C41.4094 17.3906 40.7969 17.5328 40.2172 17.7078L39.1672 18.025L38.5766 17.4344L37.9859 16.8328L38.2703 15.8594L38.5547 14.875H43.5859H48.6063L50.5531 12.9281L52.5 10.9813L52.5109 8.96875V6.94531L53.025 6.61719C53.8234 6.10313 54.1844 5.50156 54.2281 4.59375C54.2828 3.675 54.1297 3.17188 53.6047 2.59219C53.0797 2.00156 52.5 1.75 51.6469 1.75C50.5203 1.75 49.6453 2.275 49.2078 3.22656C48.9344 3.80625 48.9344 4.93281 49.2078 5.52344C49.4047 5.97187 50.0281 6.59531 50.4875 6.80313C50.75 6.92344 50.75 6.94531 50.75 8.46563V10.0078L49.1859 11.5719L47.6328 13.125H42.4484H37.275L36.6406 12.7422C36.2906 12.5344 35.7766 12.2609 35.5031 12.1297L35 11.9109V10.1391V8.36719L36.5641 6.80313L38.1172 5.25L38.7734 5.26094H39.4297L39.7578 5.775C40.2719 6.57344 40.8734 6.93438 41.7812 6.97813C42.7 7.03281 43.2031 6.87969 43.7828 6.35469C44.3844 5.81875 44.625 5.25 44.625 4.375C44.625 3.5 44.3844 2.93125 43.7828 2.39531C43.2031 1.87031 42.7 1.71719 41.7812 1.77188C40.8734 1.81562 40.2719 2.17656 39.7578 2.975L39.4297 3.48906H38.2812L37.1437 3.5L35.1969 5.44688L33.25 7.39375V10.2922V13.1906L32.9438 13.4859L32.6266 13.7922L31.85 13.5953L31.0734 13.4094L30.7891 12.1844C30.45 10.7406 30.3297 10.5984 29.4766 10.5219L28.875 10.4781L28.8859 8.70625V6.94531L29.4 6.61719C30.1984 6.10313 30.5594 5.50156 30.6031 4.59375C30.6578 3.675 30.5047 3.17188 29.9797 2.59219C29.4438 1.99063 28.875 1.75 28 1.75C26.8625 1.75 25.9547 2.32969 25.55 3.30313C25.3094 3.86094 25.3312 4.97656 25.5828 5.52344C25.7797 5.97187 26.4031 6.59531 26.8625 6.80313C27.125 6.92344 27.125 6.93438 27.125 8.69531V10.4781L26.5234 10.5219C25.6703 10.5984 25.55 10.7406 25.2109 12.1844L24.9266 13.4094L24.15 13.5953L23.3734 13.7922L23.0562 13.4859L22.75 13.1906V10.2922V7.39375L20.8031 5.44688L18.8562 3.5H17.7078C16.5922 3.5 16.5484 3.48906 16.4281 3.2375C16.2203 2.77813 15.5969 2.15469 15.1484 1.95781C14.6016 1.70625 13.4859 1.68438 12.9281 1.925C11.9547 2.32969 11.375 3.2375 11.375 4.375C11.375 5.5125 11.9547 6.42031 12.9281 6.825C13.4859 7.06562 14.6016 7.04375 15.1484 6.79219C15.5969 6.59531 16.2203 5.97187 16.4281 5.5125C16.5375 5.28281 16.625 5.25 17.2156 5.25H17.8828L19.4469 6.81406L21 8.36719V10.1391V11.9109L20.4969 12.1297C20.2234 12.2609 19.7094 12.5344 19.3594 12.7422L18.725 13.125H13.5516H8.36719L6.80312 11.5609L5.25 10.0078L5.26094 8.47656V6.94531L5.775 6.61719C6.57344 6.10313 6.93437 5.50156 6.97813 4.59375C7 4.17813 6.96719 3.675 6.89062 3.44531C6.71562 2.89844 6.07031 2.19844 5.52344 1.95781C4.93281 1.68438 3.80625 1.68438 3.22656 1.95781ZM4.92188 3.82812C5.39219 4.29844 5.04219 5.14062 4.375 5.14062C3.95937 5.14062 3.60938 4.79063 3.60938 4.375C3.60938 3.95938 3.95937 3.60938 4.375 3.60938C4.56094 3.60938 4.80156 3.70781 4.92188 3.82812ZM14.5469 3.82812C14.6672 3.94844 14.7656 4.18906 14.7656 4.375C14.7656 4.56094 14.6672 4.80156 14.5469 4.92188C14.0766 5.39219 13.2344 5.04219 13.2344 4.375C13.2344 3.95938 13.5844 3.60938 14 3.60938C14.1859 3.60938 14.4266 3.70781 14.5469 3.82812ZM28.5469 3.82812C28.6672 3.94844 28.7656 4.18906 28.7656 4.375C28.7656 4.56094 28.6672 4.80156 28.5469 4.92188C28.4266 5.04219 28.1859 5.14062 28 5.14062C27.8141 5.14062 27.5734 5.04219 27.4531 4.92188C27.3328 4.80156 27.2344 4.56094 27.2344 4.375C27.2344 4.18906 27.3328 3.94844 27.4531 3.82812C27.5734 3.70781 27.8141 3.60938 28 3.60938C28.1859 3.60938 28.4266 3.70781 28.5469 3.82812ZM42.5469 3.82812C42.6672 3.94844 42.7656 4.18906 42.7656 4.375C42.7656 4.56094 42.6672 4.80156 42.5469 4.92188C42.4266 5.04219 42.1859 5.14062 42 5.14062C41.8141 5.14062 41.5734 5.04219 41.4531 4.92188C41.3328 4.80156 41.2344 4.56094 41.2344 4.375C41.2344 4.18906 41.3328 3.94844 41.4531 3.82812C41.5734 3.70781 41.8141 3.60938 42 3.60938C42.1859 3.60938 42.4266 3.70781 42.5469 3.82812ZM52.1719 3.82812C52.2922 3.94844 52.3906 4.18906 52.3906 4.375C52.3906 4.56094 52.2922 4.80156 52.1719 4.92188C52.0516 5.04219 51.8109 5.14062 51.625 5.14062C51.4391 5.14062 51.1984 5.04219 51.0781 4.92188C50.9578 4.80156 50.8594 4.56094 50.8594 4.375C50.8594 4.18906 50.9578 3.94844 51.0781 3.82812C51.1984 3.70781 51.4391 3.60938 51.625 3.60938C51.8109 3.60938 52.0516 3.70781 52.1719 3.82812ZM28.8859 12.4578C28.9297 12.4906 29.0609 13.0047 29.2031 13.5953C29.3344 14.2188 29.5312 14.7656 29.6406 14.875C29.75 14.9844 30.0453 15.1047 30.3078 15.1484C30.5703 15.1922 31.2703 15.3672 31.8609 15.5422C32.5172 15.7391 33.0312 15.8375 33.2062 15.7938C33.3484 15.75 33.8297 15.3344 34.2562 14.8641L35.0328 14.0109L35.3719 14.1859C35.5578 14.2734 35.9078 14.4813 36.1594 14.6344L36.6078 14.9078L36.3016 15.9031C35.8203 17.4453 35.7984 17.3797 37.2094 18.7906C38.6203 20.2016 38.5547 20.1797 40.0969 19.6984L41.1031 19.3922L41.5516 20.1688L42 20.9453L41.1359 21.7328C40.6656 22.1703 40.2391 22.6516 40.2062 22.8047C40.1625 22.9688 40.2609 23.4937 40.4578 24.1391C40.6328 24.7297 40.8078 25.4188 40.8516 25.6703C40.9719 26.3922 41.0922 26.4797 42.3937 26.7969L43.5859 27.0922V28V28.9078L42.3937 29.2031C41.0922 29.5203 40.9719 29.6078 40.8516 30.3297C40.8078 30.5813 40.6328 31.2703 40.4578 31.8609C40.2609 32.5063 40.1625 33.0312 40.2062 33.1953C40.2391 33.3484 40.6656 33.8297 41.1359 34.2672L42 35.0547L41.5516 35.8313L41.1031 36.6078L40.0969 36.3016C38.5438 35.8094 38.6203 35.7875 37.2094 37.2094C35.7875 38.6203 35.8094 38.5437 36.3016 40.0969L36.6078 41.1031L35.8312 41.5516L35.0547 42L34.2672 41.1359C33.8297 40.6656 33.3484 40.2391 33.1953 40.2063C33.0312 40.1625 32.5063 40.2609 31.8609 40.4578C31.2703 40.6328 30.5812 40.8078 30.3297 40.8516C29.6078 40.9719 29.5203 41.0922 29.2031 42.3938L28.9078 43.5859H28H27.0922L26.7969 42.3938C26.4797 41.0922 26.3922 40.9719 25.6703 40.8516C25.4187 40.8078 24.7297 40.6328 24.1391 40.4578C23.4937 40.2609 22.9688 40.1625 22.8047 40.2063C22.6516 40.2391 22.1703 40.6656 21.7328 41.1359L20.9453 42L20.1687 41.5516L19.3922 41.1031L19.6984 40.0969C20.1797 38.5547 20.2016 38.6203 18.7906 37.2094C17.3797 35.7984 17.4453 35.8203 15.9031 36.3016L14.8969 36.6078L14.4484 35.8313L14 35.0547L14.8641 34.2672C15.3344 33.8297 15.7609 33.3484 15.7937 33.1953C15.8375 33.0312 15.7391 32.5063 15.5422 31.8609C15.3672 31.2703 15.1922 30.5813 15.1484 30.3297C15.0281 29.6078 14.9078 29.5203 13.6062 29.2031L12.4141 28.9078V28V27.0922L13.6062 26.7969C14.9078 26.4797 15.0281 26.3922 15.1484 25.6703C15.1922 25.4188 15.3672 24.7297 15.5422 24.1391C15.7391 23.4937 15.8375 22.9688 15.7937 22.8047C15.7609 22.6516 15.3344 22.1703 14.8641 21.7328L14 20.9453L14.4484 20.1688L14.8969 19.3922L15.9031 19.6984C17.4453 20.1797 17.3797 20.2016 18.7906 18.7906C20.2125 17.3688 20.1906 17.4344 19.6984 15.8922L19.3922 14.8969L20.1687 14.4484L20.9453 14L21.7328 14.8641C22.1703 15.3344 22.6516 15.7609 22.8047 15.7938C22.9688 15.8375 23.4937 15.7391 24.1391 15.5422C24.7297 15.3672 25.4187 15.1922 25.6703 15.1484C26.3922 15.0281 26.4797 14.9078 26.7969 13.6063L27.0922 12.4141L27.5187 12.3594C27.9891 12.2938 28.7766 12.3484 28.8859 12.4578ZM7.54688 19.5781C8.01719 20.0484 7.66719 20.8906 7 20.8906C6.58437 20.8906 6.23438 20.5406 6.23438 20.125C6.23438 19.7094 6.58437 19.3594 7 19.3594C7.18594 19.3594 7.42656 19.4578 7.54688 19.5781ZM49.5469 19.5781C49.6672 19.6984 49.7656 19.9391 49.7656 20.125C49.7656 20.3109 49.6672 20.5516 49.5469 20.6719C49.4266 20.7922 49.1859 20.8906 49 20.8906C48.8141 20.8906 48.5734 20.7922 48.4531 20.6719C48.3328 20.5516 48.2344 20.3109 48.2344 20.125C48.2344 19.9391 48.3328 19.6984 48.4531 19.5781C48.5734 19.4578 48.8141 19.3594 49 19.3594C49.1859 19.3594 49.4266 19.4578 49.5469 19.5781ZM4.92188 27.4531C5.39219 27.9234 5.04219 28.7656 4.375 28.7656C3.95937 28.7656 3.60938 28.4156 3.60938 28C3.60938 27.5844 3.95937 27.2344 4.375 27.2344C4.56094 27.2344 4.80156 27.3328 4.92188 27.4531ZM52.1719 27.4531C52.2922 27.5734 52.3906 27.8141 52.3906 28C52.3906 28.1859 52.2922 28.4266 52.1719 28.5469C52.0516 28.6672 51.8109 28.7656 51.625 28.7656C51.4391 28.7656 51.1984 28.6672 51.0781 28.5469C50.9578 28.4266 50.8594 28.1859 50.8594 28C50.8594 27.8141 50.9578 27.5734 51.0781 27.4531C51.1984 27.3328 51.4391 27.2344 51.625 27.2344C51.8109 27.2344 52.0516 27.3328 52.1719 27.4531ZM7.54688 35.3281C8.01719 35.7984 7.66719 36.6406 7 36.6406C6.58437 36.6406 6.23438 36.2906 6.23438 35.875C6.23438 35.4594 6.58437 35.1094 7 35.1094C7.18594 35.1094 7.42656 35.2078 7.54688 35.3281ZM49.5469 35.3281C49.6672 35.4484 49.7656 35.6891 49.7656 35.875C49.7656 36.0609 49.6672 36.3016 49.5469 36.4219C49.4266 36.5422 49.1859 36.6406 49 36.6406C48.8141 36.6406 48.5734 36.5422 48.4531 36.4219C48.3328 36.3016 48.2344 36.0609 48.2344 35.875C48.2344 35.6891 48.3328 35.4484 48.4531 35.3281C48.5734 35.2078 48.8141 35.1094 49 35.1094C49.1859 35.1094 49.4266 35.2078 49.5469 35.3281ZM4.92188 51.0781C5.04219 51.1984 5.14062 51.4391 5.14062 51.625C5.14062 51.8109 5.04219 52.0516 4.92188 52.1719C4.45156 52.6422 3.60938 52.2922 3.60938 51.625C3.60938 51.4391 3.70781 51.1984 3.82812 51.0781C3.94844 50.9578 4.18906 50.8594 4.375 50.8594C4.56094 50.8594 4.80156 50.9578 4.92188 51.0781ZM14.5469 51.0781C15.0172 51.5484 14.6672 52.3906 14 52.3906C13.5844 52.3906 13.2344 52.0406 13.2344 51.625C13.2344 51.2094 13.5844 50.8594 14 50.8594C14.1859 50.8594 14.4266 50.9578 14.5469 51.0781ZM28.5469 51.0781C29.0172 51.5484 28.6672 52.3906 28 52.3906C27.5844 52.3906 27.2344 52.0406 27.2344 51.625C27.2344 51.2094 27.5844 50.8594 28 50.8594C28.1859 50.8594 28.4266 50.9578 28.5469 51.0781ZM42.5469 51.0781C43.0172 51.5484 42.6672 52.3906 42 52.3906C41.5844 52.3906 41.2344 52.0406 41.2344 51.625C41.2344 51.2094 41.5844 50.8594 42 50.8594C42.1859 50.8594 42.4266 50.9578 42.5469 51.0781ZM52.1719 51.0781C52.6422 51.5484 52.2922 52.3906 51.625 52.3906C51.2094 52.3906 50.8594 52.0406 50.8594 51.625C50.8594 51.2094 51.2094 50.8594 51.625 50.8594C51.8109 50.8594 52.0516 50.9578 52.1719 51.0781Z" fill="#1EBDB6" />
                            <path d="M25.1561 18.539C23.2311 18.8671 21.7108 19.4468 20.9233 20.1687C20.0811 20.9234 20.1249 20.464 20.1249 28.4375C20.1249 36.4109 20.0811 35.9515 20.9233 36.7062C21.7546 37.4609 23.5374 38.1171 25.5171 38.3796C26.7421 38.5546 29.5202 38.5218 30.7343 38.3359C32.7577 38.0296 34.2343 37.4718 35.0983 36.6843C35.9186 35.9515 35.8749 36.389 35.8749 28.4375C35.8749 20.4859 35.9186 20.9234 35.0983 20.1906C34.2561 19.425 32.8124 18.8671 30.789 18.539C29.5749 18.3421 26.3155 18.3421 25.1561 18.539ZM30.6686 20.4093C32.4296 20.6937 34.0155 21.3937 34.0155 21.875C34.0155 22.3343 32.4077 23.0453 30.6577 23.3515C29.3999 23.5703 26.6108 23.5812 25.3749 23.3625C23.5921 23.0453 21.9843 22.3453 21.9843 21.8859C21.9843 21.7656 22.1265 21.5687 22.3015 21.4484C23.8108 20.3656 27.5952 19.8953 30.6686 20.4093ZM23.0015 24.675C24.5546 25.2109 25.364 25.3203 27.9999 25.3203C30.8874 25.3203 32.0468 25.1343 33.939 24.3359C34.103 24.2703 34.1249 24.3468 34.1249 25.2109C34.1249 25.725 34.0811 26.25 34.0155 26.3593C33.764 26.8296 32.2546 27.4531 30.6577 27.7265C29.3999 27.9453 26.6108 27.9562 25.3749 27.7375C23.7452 27.4421 22.2358 26.8406 21.9843 26.3593C21.9186 26.25 21.8749 25.725 21.8749 25.2109C21.8749 24.3468 21.8968 24.2703 22.0718 24.3359C22.1702 24.3796 22.5858 24.5328 23.0015 24.675ZM23.0015 29.05C24.5546 29.5859 25.364 29.6953 27.9999 29.6953C30.8874 29.6953 32.0468 29.5093 33.939 28.7109C34.103 28.6453 34.1249 28.7218 34.1249 29.5859C34.1249 30.1 34.0811 30.625 34.0155 30.7343C33.764 31.2046 32.2546 31.8281 30.6577 32.1015C29.3999 32.3203 26.6108 32.3312 25.3749 32.1125C23.7452 31.8171 22.2358 31.2156 21.9843 30.7343C21.9186 30.625 21.8749 30.1 21.8749 29.5859C21.8749 28.7218 21.8968 28.6453 22.0718 28.7109C22.1702 28.7546 22.5858 28.9078 23.0015 29.05ZM23.0015 33.425C24.5546 33.9609 25.364 34.0703 27.9999 34.0703C30.8874 34.0703 32.0468 33.8843 33.939 33.0859C34.103 33.0203 34.1249 33.0968 34.1249 33.9609C34.1249 34.475 34.0811 35 34.0155 35.1093C33.764 35.5906 32.003 36.2796 30.4061 36.5203C29.2468 36.7062 26.4905 36.6843 25.3749 36.4875C23.7452 36.1921 22.2358 35.5906 21.9843 35.1093C21.9186 35 21.8749 34.475 21.8749 33.9609C21.8749 33.0968 21.8968 33.0203 22.0718 33.0859C22.1702 33.1296 22.5858 33.2828 23.0015 33.425Z" fill="#1EBDB6" />
                        </svg>