<svg width="72" height="78" viewBox="0 0 72 78" fill="none" xmlns="http://www.w3.org/2000/svg">
<path d="M3.59256 1.638C0.0653194 4.368 -0.16983 6.864 0.0653193 38.454C0.300469 66.612 0.378852 68.016 1.78975 69.108C3.98448 70.668 26.9507 70.746 27.5778 69.186C28.5184 66.768 26.8724 66.378 15.9771 66.144L5.00346 65.91L4.76831 36.972C4.61154 8.658 4.61154 7.956 6.25759 6.006L7.82525 3.9H52.8172L52.582 31.356C52.4253 47.502 52.0333 59.202 51.563 59.67C50.4657 60.762 48.898 58.656 47.4087 54.054C45.7627 49.062 44.7437 48.204 40.9029 48.516C38.3947 48.672 37.6892 49.14 36.7486 51.246C35.6513 53.508 35.2593 53.742 31.2618 53.976C27.2643 54.21 26.9507 54.366 26.9507 56.16C26.9507 57.954 27.2643 58.11 31.3402 58.344L35.7297 58.578L36.1216 64.584C36.6702 72.462 39.0217 78 41.8435 78C44.2734 78 44.3518 76.596 42.2354 71.838C40.9813 69.186 40.6678 66.768 40.6678 60.372C40.6678 55.926 40.9813 52.26 41.3732 52.26C41.7652 52.26 42.8625 54.522 43.8031 57.33C44.7437 60.138 46.1546 62.79 46.9384 63.18C49.5251 64.584 53.1307 64.038 55.1687 62.01C57.1282 60.138 57.1282 59.904 57.1282 47.112C57.1282 35.1 57.2066 34.242 58.4608 35.178C59.1662 35.802 60.5771 37.986 61.5177 40.17C63.2421 43.68 63.3989 45.162 63.3989 55.77C63.3205 65.286 63.0854 68.25 61.8312 71.76C59.7933 77.532 59.8717 78 62.6151 78C64.7314 78 65.0449 77.688 66.2991 73.476C67.3964 69.966 67.71 66.3 67.71 56.16C67.71 40.638 66.8478 37.518 60.969 30.966L56.9715 26.52H62.7718C71.1588 26.52 71.5507 26.052 71.9427 16.692C72.2562 7.878 71.3156 3.9 68.337 1.638C66.3775 0.0780001 65.4369 0 35.9648 0C6.49274 0 5.55214 0.0780001 3.59256 1.638ZM65.672 5.928C67.0829 7.644 67.3181 9.126 67.3181 14.82C67.3181 22.62 67.3181 22.62 60.969 22.62H57.1282V14.82C57.1282 8.034 57.3634 6.786 58.6959 5.46C60.8906 3.276 63.7124 3.51 65.672 5.928Z" fill="#1EBDB6"/>
<path d="M9.4713 8.736C8.92261 9.282 8.5307 11.856 8.5307 14.976C8.5307 21.216 9.23615 21.84 15.8987 21.84C21.6207 21.84 22.6397 20.748 22.6397 14.508C22.6397 11.778 22.2477 9.282 21.6991 8.736C21.1504 8.19 18.5637 7.8 15.5852 7.8C12.6066 7.8 10.02 8.19 9.4713 8.736Z" fill="#1EBDB6"/>
<path d="M9.9416 26.598C8.84423 27.222 8.5307 28.47 8.5307 32.604C8.5307 35.724 8.92261 38.298 9.4713 38.844C10.02 39.39 12.6066 39.78 15.5852 39.78C18.5637 39.78 21.1504 39.39 21.6991 38.844C23.11 37.44 22.8748 28.47 21.3855 26.988C19.9746 25.584 12.1363 25.272 9.9416 26.598Z" fill="#1EBDB6"/>
<path d="M9.4713 45.396C8.92261 45.942 8.5307 48.516 8.5307 51.636C8.5307 57.876 9.23615 58.5 15.8987 58.5C21.6207 58.5 22.6397 57.408 22.6397 51.168C22.6397 48.438 22.2477 45.942 21.6991 45.396C21.1504 44.85 18.5637 44.46 15.5852 44.46C12.6066 44.46 10.02 44.85 9.4713 45.396Z" fill="#1EBDB6"/>
</svg>
