<svg width="69" height="83" viewBox="0 0 69 83" fill="none" xmlns="http://www.w3.org/2000/svg">
<path fill-rule="evenodd" clip-rule="evenodd" d="M32.667 44.9649C33.3213 45.0999 33.9877 45.1678 34.6558 45.1676C36.5793 45.2059 38.4682 44.6542 40.0677 43.587C40.5159 43.2705 40.9429 42.9253 41.3463 42.5535L42.0701 41.8781C44.3837 39.6828 46.0479 38.1023 45.7231 34.2657C45.7039 34.0113 45.768 33.7577 45.9058 33.5429C46.0728 33.2905 46.3333 33.1145 46.6301 33.0537C46.9269 32.9929 47.2358 33.0523 47.4888 33.2187C47.6222 33.3067 47.7651 33.3792 47.915 33.4349C48.0149 33.4733 48.1196 33.4982 48.2262 33.5092C48.4156 33.5092 48.4088 33.5902 48.4426 33.5632C48.4765 33.5362 48.4426 33.4619 48.5306 33.266L49.6535 30.0643C49.7695 29.7325 49.7952 29.3759 49.728 29.0309C49.7158 28.9822 49.6871 28.9392 49.6468 28.9093C49.5134 28.8578 49.3689 28.8415 49.2273 28.862C48.6973 28.9299 48.1963 29.1426 47.7797 29.4767C47.6528 29.573 47.5076 29.6425 47.3529 29.6809C47.1981 29.7192 47.0372 29.7256 46.8799 29.6996C46.7291 29.6736 46.5849 29.6178 46.4559 29.5355C46.3269 29.4532 46.2156 29.3459 46.1287 29.2201C46.0417 29.0943 45.9808 28.9524 45.9495 28.8027C45.9182 28.6531 45.9171 28.4987 45.9464 28.3487C46.7717 23.5191 46.3996 20.3782 45.3781 18.2505C44.5739 16.6459 43.2775 15.3396 41.6778 14.522C39.2641 16.4387 36.3198 17.5702 33.242 17.7642C30.8514 17.9131 28.5482 18.7171 26.5854 20.0878C25.4568 20.8143 24.5932 21.8851 24.123 23.1409C23.6867 24.54 23.6539 26.0334 24.0282 27.4503C24.0763 27.6532 24.0685 27.8652 24.0056 28.064C23.9427 28.2628 23.8271 28.4409 23.671 28.5794C23.515 28.7179 23.3243 28.8116 23.1192 28.8507C22.9141 28.8897 22.7023 28.8726 22.5062 28.8012L21.6876 28.504C20.8014 28.1933 20.1655 28.0379 19.9423 28.4702C19.8123 29.5982 19.8741 30.7401 20.1249 31.8475C20.2161 32.433 20.5165 32.9656 20.9705 33.347C21.0868 33.4099 21.2171 33.4425 21.3494 33.4416C21.5788 33.4374 21.8065 33.401 22.0258 33.3335C22.1346 33.2953 22.2488 33.2748 22.3641 33.2727C22.5142 33.2692 22.6636 33.2951 22.8037 33.3492C22.9438 33.4033 23.0718 33.4844 23.1805 33.5879C23.2892 33.6914 23.3764 33.8153 23.4371 33.9524C23.4978 34.0896 23.5309 34.2373 23.5344 34.3873C23.6291 38.3049 25.3812 39.7909 27.5121 41.6417L28.4119 42.432C29.6371 43.5678 31.0897 44.4311 32.6737 44.9649H32.667ZM34.5003 68.0183C35.5358 68.0183 36.5482 68.325 37.4092 68.8994C38.2703 69.4739 38.9414 70.2904 39.3377 71.2457C39.734 72.201 39.8377 73.2522 39.6356 74.2663C39.4336 75.2805 38.9349 76.212 38.2027 76.9432C37.4704 77.6743 36.5374 78.1722 35.5217 78.374C34.5061 78.5757 33.4533 78.4722 32.4965 78.0765C31.5398 77.6808 30.722 77.0107 30.1467 76.1509C29.5713 75.2912 29.2642 74.2804 29.2642 73.2464C29.266 71.8604 29.8183 70.5316 30.7998 69.5516C31.7814 68.5715 33.1121 68.0201 34.5003 68.0183ZM42.8887 44.2152L43.3284 44.8501C44.0049 45.8295 44.7558 46.944 45.4593 47.8154C49.6468 50.4091 58.847 51.1116 62.4459 53.111C71.6055 58.2107 68.2637 70.5918 68.9266 79.5079C68.7237 81.6153 67.5263 82.8176 65.1789 83H62.6353L65.4224 61.8784C65.4875 61.5213 65.4752 61.1544 65.3863 60.8025C65.2974 60.4505 65.134 60.1217 64.907 59.8381C64.6801 59.5546 64.3949 59.3229 64.0707 59.1586C63.7465 58.9944 63.3909 58.9015 63.0277 58.8861H35.6706C36.5297 52.6111 44.2281 52.5774 44.4175 49.6459C43.443 48.4736 42.5394 47.2444 41.7116 45.9646L41.3936 45.4918C39.5721 46.8638 37.3569 47.6145 35.0753 47.633C32.2891 47.5398 29.6202 46.4902 27.5189 44.661C27.0327 46.3119 26.3514 47.8991 25.4895 49.3892C25.4227 49.4773 25.3428 49.5547 25.2527 49.6188C25.5706 52.1991 34.4258 55.4953 34.9603 58.9132H6.42608C6.06794 58.9328 5.718 59.0278 5.39924 59.192C5.08047 59.3561 4.80009 59.5858 4.5765 59.8658C4.3529 60.1459 4.19115 60.4699 4.10185 60.8168C4.01256 61.1636 3.99774 61.5254 4.05838 61.8784L6.8455 83H4.27485C1.92745 82.8176 0.730065 81.6491 0.533884 79.5079C0.655651 70.0515 -2.93649 58.6497 7.01462 53.111C10.6609 51.0846 20.0573 50.4091 24.1568 47.7073C24.8307 46.256 25.4026 44.7596 25.8683 43.229C23.6088 41.2904 21.735 39.6085 21.3155 35.6976C20.8031 35.6925 20.3004 35.5577 19.8543 35.3059C19.3536 34.9789 18.9233 34.5554 18.5887 34.0601C18.2541 33.5648 18.022 33.0077 17.906 32.4217C17.5743 30.971 17.5033 29.4729 17.6963 27.9974C17.7108 27.9026 17.7357 27.8097 17.7707 27.7205C18.2443 26.3696 18.9343 25.8765 19.8002 25.7954L19.5431 25.6266C19.1914 21.2631 20.2196 13.6912 15.4842 12.2592C24.4815 1.14794 34.8317 -4.88391 42.6181 4.97779C51.8521 5.46412 55.6337 19.9459 48.5441 26.3425L48.5103 26.6195C48.6931 26.5797 48.8784 26.5526 49.065 26.5384C49.6387 26.4826 50.2164 26.5928 50.7291 26.8559C51.0134 27.0047 51.2651 27.2086 51.4695 27.4556C51.6739 27.7026 51.827 27.9878 51.9198 28.2946C52.1307 29.0713 52.1119 29.8924 51.8656 30.6587L50.6953 33.9752C50.568 34.4988 50.2822 34.9706 49.8768 35.3261C49.3692 35.6937 48.739 35.851 48.1179 35.7652H48.03C47.8879 39.4667 46.0546 41.2094 43.6193 43.5195L42.9022 44.1949L42.8616 44.2354L42.8887 44.2152Z" fill="#1EBDB6"/>
</svg>
