<svg width="63" height="72" viewBox="0 0 63 72" fill="none" xmlns="http://www.w3.org/2000/svg">
<path d="M41.7221 0.104927C41.2876 0.208013 40.6615 0.502544 38.916 1.41559C38.0174 1.8942 37.4945 2.16665 35.4765 3.21959C35.0198 3.45522 34.1139 3.92647 33.4658 4.25782C32.8176 4.59653 31.9559 5.03833 31.5508 5.25186C31.1458 5.4654 30.284 5.90719 29.6359 6.2459C28.9878 6.57725 28.2954 6.94541 28.0892 7.05586C27.8904 7.16631 27.198 7.52711 26.5646 7.85846C24.3256 9.00713 23.0736 9.6551 22.3076 10.0601C21.3722 10.5461 20.3264 11.0983 18.9933 11.7831C18.4482 12.0703 17.7338 12.4458 17.4098 12.6151C17.0857 12.7845 16.1945 13.2484 15.4212 13.646C14.6552 14.0436 13.7567 14.5075 13.4326 14.6769C12.8949 14.964 11.8343 15.5163 10.1183 16.4072C7.11329 17.9682 6.64192 18.2333 6.2663 18.5794C5.74338 19.0506 5.37512 19.5587 5.08788 20.1993C4.80064 20.8473 4.70489 21.3259 4.70489 22.1138C4.70489 23.2772 4.81537 23.5496 6.71557 27.1576C6.91443 27.5405 7.20904 28.1148 7.37107 28.4241C7.52574 28.7407 7.68041 28.9984 7.71723 28.9984C7.74669 28.9984 7.84981 28.8585 7.94555 28.6818C8.23279 28.159 9.02823 27.1871 9.51433 26.76C10.7738 25.6481 12.0111 25.0149 13.7272 24.6026L14.5374 24.4038L36.9274 24.3228L38.3636 23.5791C39.1517 23.1667 40.1975 22.6218 40.6836 22.3715C41.1697 22.1211 41.9357 21.7235 42.3776 21.4879C44.1747 20.5454 46.0749 19.5587 47.791 18.6678C49.3745 17.8504 50.5455 17.2393 51.2894 16.849C51.6577 16.6576 52.3574 16.2894 52.8582 16.0317C53.3517 15.774 53.7567 15.5236 53.7567 15.4647C53.7567 15.369 53.4032 14.6769 51.4367 10.9216C51.2231 10.5166 50.8328 9.76555 50.5603 9.24276C50.2951 8.72733 49.8532 7.88791 49.5881 7.36512C49.3156 6.84969 48.9252 6.09864 48.7116 5.69366C48.3728 5.04569 47.6952 3.74239 47.2533 2.89561C46.7746 1.9752 46.4726 1.57022 45.8834 1.06952C45.3678 0.620356 44.6387 0.252192 44.0053 0.104927C43.4014 -0.0349756 42.3113 -0.0349756 41.7221 0.104927Z" fill="#1EBDB6"/>
<path d="M55.9663 20.4497C55.8263 20.5159 55.2592 20.8105 54.7142 21.0976C54.1692 21.3848 53.2927 21.8413 52.7624 22.1138C52.2395 22.3936 51.3262 22.8648 50.737 23.1741C50.1478 23.4833 49.4481 23.8515 49.1756 23.9914C48.8957 24.1313 48.6748 24.2712 48.6748 24.3007C48.6748 24.3375 50.8475 24.3596 53.499 24.3596C57.3067 24.3596 58.3231 24.3375 58.3231 24.2639C58.3231 24.1681 58.1758 23.8736 57.1742 21.9444C56.4377 20.538 56.3124 20.3098 56.2609 20.3098C56.2388 20.3171 56.1062 20.376 55.9663 20.4497Z" fill="#1EBDB6"/>
<path d="M14.4269 28.6303C13.4841 28.8733 12.7403 29.3003 12.1142 29.963C11.5176 30.5815 11.223 31.0822 10.9505 31.9438C10.7811 32.496 10.7811 32.5107 10.7811 36.3617V40.2274L11.4072 40.2716C11.7533 40.3011 12.2763 40.3747 12.5709 40.441C12.8655 40.5072 13.1895 40.5588 13.2926 40.5588H13.4694V36.8182C13.4694 32.8126 13.4915 32.577 13.8524 32.0468C14.0734 31.7155 14.5079 31.4357 14.9719 31.3105C15.5317 31.1632 58.3231 31.1632 58.8829 31.3105C59.5531 31.4872 59.914 31.8039 60.1792 32.4592L60.3485 32.8642V47.0017C60.3485 60.7121 60.3412 61.1539 60.2086 61.603C60.0318 62.1774 59.5678 62.6413 58.9786 62.8474C58.5956 62.9726 57.8297 62.98 41.921 63.0021L25.2536 63.0168V65.6676L59.2438 65.6308L59.833 65.4172C61.3355 64.8797 62.1825 64.0256 62.7938 62.4277L63 61.8755V32.2751L62.757 31.6345C62.1383 30.0219 61.0482 29.05 59.3984 28.6303C58.824 28.483 58.5735 28.483 36.8979 28.4904C15.4948 28.4904 14.9645 28.4977 14.4269 28.6303Z" fill="#1EBDB6"/>
<path d="M29.82 37.6871H48.0119V35.4781H29.82V37.6871Z" fill="#1EBDB6"/>
<path d="M17.3508 35.6033C17.3214 35.6254 17.2993 36.1408 17.2993 36.7446V37.8344H24.8117V35.5518H21.1071C19.0669 35.5518 17.3729 35.5738 17.3508 35.6033Z" fill="#1EBDB6"/>
<path d="M17.2993 43.5041H48.0119V41.2215H17.2993V43.5041Z" fill="#1EBDB6"/>
<path d="M10.5234 43.8207C10.5013 43.8428 10.1698 43.8944 9.78684 43.9385C8.66734 44.0637 7.46682 44.4613 6.32522 45.0872C4.31454 46.1917 2.93726 47.8558 2.14919 50.1311C1.78829 51.1693 1.7441 51.508 1.70728 53.8863L1.67045 56.1395L1.32429 56.2205C0.845556 56.3309 0.484664 56.5666 0.241614 56.92L0.0280248 57.2219L0.00592939 63.7826C-0.00880089 67.3906 0.00592939 70.5126 0.0280248 70.7262C0.0795808 71.168 0.352091 71.5582 0.786635 71.8306L1.05914 71.9926L10.8032 72C20.2232 72 20.5547 71.9926 20.8198 71.8601C21.1513 71.6907 21.2765 71.5508 21.5048 71.1164L21.6815 70.7851V57.3839L21.4753 57.0378C21.2323 56.6181 20.9524 56.4119 20.4074 56.2426L19.9876 56.11L19.9065 53.5844C19.8255 51.0883 19.8182 51.0441 19.6046 50.352C18.8239 47.8558 16.8942 45.7205 14.4784 44.6601C14.0439 44.4687 13.6462 44.3141 13.5946 44.3141C13.5504 44.3141 13.2926 44.2478 13.0349 44.1668C12.7697 44.0858 12.2615 43.9827 11.8933 43.9385C11.525 43.8944 11.0757 43.8428 10.8916 43.8207C10.7075 43.7986 10.5454 43.7986 10.5234 43.8207ZM12.6224 47.7601C14.2722 48.3712 15.4506 49.5346 16.0546 51.1546L16.2976 51.7878V53.96L16.305 56.1321L10.8032 56.1542L5.30147 56.1689L5.24991 55.8229C5.22045 55.6388 5.22045 54.7478 5.24255 53.8569C5.27937 52.5609 5.3162 52.1044 5.44141 51.6111C5.86122 49.9102 7.2385 48.4154 8.97667 47.7748C9.63954 47.5245 9.97097 47.4876 11.0757 47.5171C11.9154 47.5392 12.1069 47.5686 12.6224 47.7601ZM12.0185 59.9463C12.755 60.2777 13.1895 60.7784 13.44 61.5883C13.5946 62.089 13.6314 62.3026 13.5946 62.6707C13.5357 63.4071 13.2043 64.0182 12.5856 64.5263C12.0111 64.9975 11.9964 65.0638 11.9964 66.7132C11.9964 67.8545 11.9743 68.23 11.8859 68.4509C11.7239 68.8559 11.4072 69.0621 10.899 69.1062C10.5528 69.1357 10.4497 69.1136 10.2361 68.9663C9.72792 68.6276 9.68373 68.4583 9.63217 66.7721C9.58798 65.0343 9.58062 65.0122 8.90302 64.3422C8.66734 64.1066 8.3801 63.7384 8.26962 63.5249C8.10022 63.1788 8.07076 63.0389 8.07076 62.4572C8.07076 61.8608 8.10022 61.7209 8.29172 61.3085C8.97667 59.8579 10.5528 59.2763 12.0185 59.9463Z" fill="#1EBDB6"/>
<path d="M42.8416 49.1738C40.9709 49.5125 39.5199 50.7643 38.9233 52.5757C38.7613 53.0543 38.7319 53.2752 38.7319 53.9968C38.7319 54.7184 38.7613 54.9393 38.9233 55.4179C39.2032 56.2573 39.5788 56.8758 40.1607 57.4575C41.3833 58.6725 43.1215 59.1584 44.7418 58.7314C45.5078 58.5252 46.2075 58.157 46.7378 57.6858L47.106 57.3544L47.3196 57.5753C47.6584 57.9361 48.557 58.4516 49.1756 58.6504C50.4572 59.0627 51.8639 58.9154 53.0202 58.238C53.6831 57.8478 53.9777 57.6048 54.427 57.0452C54.8321 56.5518 55.1635 55.9112 55.3476 55.2854C55.5538 54.5638 55.5391 53.3562 55.3108 52.6346C54.7289 50.7864 53.278 49.5273 51.3262 49.1738C50.0815 48.9456 48.3876 49.4684 47.3933 50.3814L47.106 50.6465L46.8335 50.3961C45.795 49.461 44.101 48.9382 42.8416 49.1738Z" fill="#1EBDB6"/>
</svg>
