<svg width="58" height="59" viewBox="0 0 58 59" fill="none" xmlns="http://www.w3.org/2000/svg">
<path d="M14.8086 20.896H43.1916V24.5835H14.8086V20.896ZM14.8086 30.7292H20.9788V34.4165H14.8086V30.7292ZM14.8086 40.5625H27.149V44.25H14.8086V40.5625ZM33.7571 41.9351L55.6698 20.1404L57.9999 22.4581L36.0873 44.2529L33.7571 41.9351ZM26.8857 30.5865L38.3019 41.9418L35.9792 44.2522L24.5626 32.8974L26.8857 30.5865ZM54.2979 31.9586V52.8543C54.2979 54.2064 53.1894 55.3126 51.8297 55.3126H6.17029C4.81048 55.3126 3.70219 54.2064 3.70219 52.8543V11.0625C3.70219 9.71044 4.81048 8.60429 6.17029 8.60429H14.8086V13.5207H43.1916V8.60436H51.8298C53.1894 8.60436 54.298 9.71051 54.298 11.0626V15.9794H58V9.8333C58 7.12875 55.4479 4.91685 52.7294 4.91685H43.1915V0H14.8302V4.91678H4.94345C2.22439 4.91678 0 7.12895 0 9.83357V54.0832C0 56.7872 2.2172 59 4.93641 59H53.0639C55.7824 59 58 56.7875 58 54.0832V31.9586H54.2979ZM18.5107 3.6875H39.4895V9.83323H18.5107V3.6875Z" fill="#1EBDB6"/>
</svg>
